SplineFontDB: 3.0
FontName: Bodoni-96-Bold
FullName: Bodoni* 96 Bold
FamilyName: Bodoni* 96
Weight: Bold
Copyright: Copyright (c) 2017, Owen Earl,,, (EwonRael@yahoo.com)
Version: 001.0
ItalicAngle: 0
UnderlinePosition: -408
UnderlineWidth: 204
Ascent: 3276
Descent: 820
InvalidEm: 0
LayerCount: 2
Layer: 0 0 "Back" 1
Layer: 1 0 "Fore" 0
PreferredKerning: 4
XUID: [1021 31 -699969567 16487490]
FSType: 0
OS2Version: 0
OS2_WeightWidthSlopeOnly: 0
OS2_UseTypoMetrics: 1
CreationTime: 1460762150
ModificationTime: 1573677753
PfmFamily: 17
TTFWeight: 700
TTFWidth: 5
LineGap: 0
VLineGap: 0
OS2TypoAscent: 4194
OS2TypoAOffset: 0
OS2TypoDescent: -820
OS2TypoDOffset: 0
OS2TypoLinegap: 0
OS2WinAscent: 4096
OS2WinAOffset: 0
OS2WinDescent: 1638
OS2WinDOffset: 0
HheadAscent: 4194
HheadAOffset: 0
HheadDescent: -820
HheadDOffset: 0
OS2CapHeight: 3072
OS2XHeight: 1884
OS2FamilyClass: 768
OS2Vendor: 'it* '
OS2UnicodeRanges: 00000001.00000000.00000000.00000000
Lookup: 1 0 0 "'ss02' Style Set 2 lookup 4" { "'ss02' Style Set 2 lookup 4-1"  } ['ss02' ('DFLT' <'dflt' > 'grek' <'dflt' > 'latn' <'dflt' > ) ]
Lookup: 1 0 0 "'ss03' Style Set 3 lookup 5" { "'ss03' Style Set 3 lookup 5-1"  } ['ss03' ('DFLT' <'dflt' > 'grek' <'dflt' > 'latn' <'dflt' > ) ]
Lookup: 1 0 0 "'ss01' Style Set 1 lookup 2" { "'ss01' Style Set 1 lookup 2-1"  } ['ss01' ('DFLT' <'dflt' > 'grek' <'dflt' > 'latn' <'dflt' > ) ]
Lookup: 5 0 0 "'calt' Contextual Alternates lookup 3" { "'calt' Contextual Alternates lookup 3-1"  } ['calt' ('DFLT' <'dflt' > 'grek' <'dflt' > 'latn' <'dflt' > ) ]
Lookup: 4 0 1 "'liga' Standard Ligatures lookup 0" { "'liga' Standard Ligatures lookup 0-1"  } ['liga' ('DFLT' <'dflt' > 'grek' <'dflt' > 'latn' <'dflt' > ) ]
Lookup: 258 0 0 "'kern' Horizontal Kerning lookup 0" { "kerning like they all do" [150,0,6] } ['kern' ('DFLT' <'dflt' > 'grek' <'dflt' > 'latn' <'dflt' > ) ]
MarkAttachClasses: 1
DEI: 91125
KernClass2: 31 27 "kerning like they all do"

StartChar: ampersand
Encoding: 38 38 0
GlifName: ampersand
Width: 3528
Flags: HMW
LayerCount: 2
Fore
SplineSet
1642 1926 m 9
 1640.5 1928.5 l 1
 1757 2007.5 1908.5 2145.5 1908.5 2611 c 0
 1908.5 2844.5 1853.5 3104 1624 3104 c 0
 1400.5 3104 1315.5 2879 1315.5 2682.5 c 0
 1315.5 2519 1437.5 2269.5 1613.5 2007.5 c 2
 2915 8 l 1
 3416 8 l 1
 3416 0 l 1
 2211.5 0 l 1
 856 2007.5 l 2
 750 2163.5 667.5 2367 667.5 2510.5 c 0
 667.5 2879 1056.5 3112.5 1634 3112.5 c 0
 2175 3112.5 2524 2917 2524 2610 c 0
 2524 2230.5 2106 2093.5 1642 1926 c 9
1108.5 1688.5 m 1
 1110.5 1685.5 l 1
 915 1578 814 1378 814 1047 c 0
 814 563.5 1061.5 62 1512 62 c 0
 2224 62 2851.5 952.5 2932 1884 c 1
 2941 1884 l 1
 2856.5 970.5 2261 -40.5 1163 -40.5 c 0
 515.5 -40.5 159 274.5 159 722.5 c 0
 159 1365.5 932 1607 1108.5 1688.5 c 1
2392 1884 m 1
 3374.5 1884 l 1
 3374.5 1876 l 1
 2392 1876 l 1
 2392 1884 l 1
EndSplineSet
EndChar

StartChar: period
Encoding: 46 46 1
GlifName: period
Width: 1064
Flags: HMW
LayerCount: 2
Fore
SplineSet
164 327 m 0
 164 530 330 696 533 696 c 0
 736 696 901 530 901 327 c 0
 901 124 736 -40 533 -40 c 0
 330 -40 164 124 164 327 c 0
EndSplineSet
EndChar

StartChar: zero
Encoding: 48 48 2
GlifName: zero
Width: 2702
Flags: HMW
LayerCount: 2
Fore
SplineSet
1352 -40 m 0
 643 -40 164 643 164 1536 c 0
 164 2429 685 3112 1352 3112 c 0
 2019 3112 2540 2429 2540 1536 c 0
 2540 643 2061 -40 1352 -40 c 0
1352 3104 m 0
 967 3104 880 2384 880 1536 c 0
 880 688 926 -32 1352 -32 c 0
 1778 -32 1822 688 1822 1536 c 0
 1822 2384 1758 3104 1352 3104 c 0
EndSplineSet
EndChar

StartChar: one
Encoding: 49 49 3
GlifName: one
Width: 2026
VWidth: 4730
Flags: HMW
LayerCount: 2
Fore
SplineSet
204 8 m 1
 1822 8 l 1
 1822 0 l 1
 204 0 l 1
 204 8 l 1
274 3072 m 1
 1372 3072 l 1
 1372 4 l 1
 738 4 l 1
 738 3064 l 1
 274 3064 l 1
 274 3072 l 1
EndSplineSet
EndChar

StartChar: two
Encoding: 50 50 4
GlifName: two
Width: 2457
VWidth: 4730
Flags: HMW
LayerCount: 2
Fore
SplineSet
2315 0 m 1
 164 0 l 1
 164 409 l 1
 1038 1112 l 2
 1399 1406 1573 1723 1573 2170 c 0
 1573 2677 1377 3049 996 3049 c 0
 560 3049 201 2685 217 2224 c 1
 264 2380 397 2507 590 2507 c 0
 811 2507 975 2359 975 2154 c 0
 975 1929 779 1780 574 1780 c 0
 369 1780 204 1933 204 2248 c 0
 204 2728 586 3112 1229 3112 c 0
 1868 3112 2229 2764 2229 2334 c 0
 2229 1863 1740 1637 1436 1409 c 2
 477 614 l 1
 2306 614 l 1
 2306 922 l 1
 2315 922 l 1
 2315 0 l 1
EndSplineSet
EndChar

StartChar: three
Encoding: 51 51 5
GlifName: three
Width: 2338
VWidth: 4730
Flags: HMW
LayerCount: 2
Fore
SplineSet
2175 840 m 0
 2175 287 1667 -40 1048 -40 c 0
 405 -40 102 325 102 660 c 0
 102 889 256 1039 461 1039 c 0
 645 1039 785 907 785 698 c 0
 785 505 618 368 438 368 c 0
 291 368 190 436 133 542 c 1
 174 278 459 -14 967 -14 c 0
 1414 -14 1515 393 1515 840 c 0
 1515 1205 1401 1654 811 1654 c 1
 811 1662 l 1
 1840 1662 2175 1311 2175 840 c 0
811 1654 m 1
 811 1662 l 1
 1360 1662 1393 2137 1393 2420 c 0
 1393 2744 1290 3088 1007 3088 c 0
 698 3088 363 2888 281 2644 c 1
 355 2754 475 2802 581 2802 c 0
 740 2802 897 2679 897 2484 c 0
 897 2269 725 2142 561 2142 c 0
 377 2142 226 2259 226 2478 c 0
 226 2834 651 3108 1069 3108 c 0
 1605 3108 2052 2850 2052 2400 c 0
 2052 1990 1798 1654 811 1654 c 1
EndSplineSet
EndChar

StartChar: four
Encoding: 52 52 6
GlifName: four
Width: 2620
VWidth: 4730
Flags: HMW
LayerCount: 2
Fore
SplineSet
2437 8 m 1
 2437 0 l 1
 1106 0 l 1
 1106 8 l 1
 1495 8 l 1
 1495 2822 l 1
 160 884 l 1
 2580 884 l 1
 2580 876 l 1
 144 876 l 1
 1659 3072 l 1
 2130 3072 l 1
 2130 8 l 1
 2437 8 l 1
EndSplineSet
Substitution2: "'ss03' Style Set 3 lookup 5-1" four.alt
EndChar

StartChar: five
Encoding: 53 53 7
GlifName: five
Width: 2191
VWidth: 4730
Flags: HMW
LayerCount: 2
Fore
SplineSet
1925 2458 m 1
 241 2458 l 1
 241 1462 l 1
 233 1462 l 1
 233 3072 l 1
 1917 3072 l 1
 1917 3298 l 1
 1925 3298 l 1
 1925 2458 l 1
78 426 m 1
 142 184 459 -20 803 -20 c 0
 1249 -20 1393 444 1393 911 c 0
 1393 1459 1247 1833 903 1833 c 0
 590 1833 329 1645 245 1462 c 1
 237 1462 l 1
 323 1655 598 1864 1032 1864 c 0
 1650 1864 2069 1525 2069 911 c 0
 2069 358 1564 -40 884 -40 c 0
 446 -40 41 193 41 569 c 0
 41 798 203 946 397 946 c 0
 581 946 754 829 754 604 c 0
 754 399 577 246 377 246 c 0
 240 246 131 329 78 426 c 1
EndSplineSet
EndChar

StartChar: six
Encoding: 54 54 8
GlifName: six
Width: 2497
VWidth: 4730
Flags: HMW
LayerCount: 2
Fore
SplineSet
1700 1024 m 0
 1700 1675 1556 1968 1294 1968 c 0
 975 1968 880 1678 880 1146 c 1
 872 1146 l 1
 872 1687 946 2018 1417 2018 c 0
 1872 2018 2375 1720 2375 1024 c 0
 2375 410 1966 -40 1307 -40 c 0
 648 -40 204 410 204 1270 c 0
 204 2266 991 3112 2069 3112 c 1
 2069 3104 l 1
 1336 3104 880 2271 880 1362 c 1
 880 1146 l 1
 880 495 996 -32 1319 -32 c 0
 1642 -32 1700 455 1700 1024 c 0
EndSplineSet
EndChar

StartChar: seven
Encoding: 55 55 9
GlifName: seven
Width: 2211
VWidth: 4730
Flags: HMW
LayerCount: 2
Fore
SplineSet
606 373 m 0
 606 697 1018 1082 1291 1528 c 0
 1430 1766 1599 2081 1794 2437 c 1
 172 2437 l 1
 172 2130 l 1
 164 2130 l 1
 164 3072 l 1
 2171 3072 l 1
 2171 3072 1642 2084 1321 1545 c 0
 1116 1198 1032 1110 1032 971 c 0
 1032 712 1384 652 1384 340 c 0
 1384 127 1241 -40 999 -40 c 0
 778 -40 606 90 606 373 c 0
EndSplineSet
EndChar

StartChar: eight
Encoding: 56 56 10
GlifName: eight
Width: 2457
VWidth: 4730
Flags: HMW
LayerCount: 2
Fore
SplineSet
901 2294 m 0
 901 1848 988 1602 1229 1602 c 0
 1470 1602 1557 1848 1557 2294 c 0
 1557 2720 1470 3068 1229 3068 c 0
 988 3068 901 2720 901 2294 c 0
246 2294 m 0
 246 2744 590 3112 1229 3112 c 0
 1868 3112 2212 2744 2212 2294 c 0
 2212 1844 1868 1566 1229 1566 c 0
 590 1566 246 1844 246 2294 c 0
819 778 m 0
 819 352 926 4 1229 4 c 0
 1532 4 1639 352 1639 778 c 0
 1639 1204 1532 1554 1229 1554 c 0
 926 1554 819 1204 819 778 c 0
164 778 m 0
 164 1270 508 1590 1229 1590 c 0
 1950 1590 2293 1270 2293 778 c 0
 2293 286 1950 -40 1229 -40 c 0
 508 -40 164 286 164 778 c 0
EndSplineSet
EndChar

StartChar: A
Encoding: 65 65 12
GlifName: A_
Width: 3204
Flags: HMW
LayerCount: 2
Fore
SplineSet
72 8 m 1
 973 8 l 1
 973 0 l 1
 72 0 l 1
 72 8 l 1
1751 8 m 1
 3144 8 l 1
 3144 0 l 1
 1751 0 l 1
 1751 8 l 1
820 1006 m 1
 2120 1006 l 1
 2120 998 l 1
 820 998 l 1
 820 1006 l 1
1333 2439 m 1
 475 0 l 1
 465 0 l 1
 1566 3134 l 1
 1771 3134 l 1
 2857 0 l 1
 2120 0 l 1
 1333 2439 l 1
EndSplineSet
EndChar

StartChar: B
Encoding: 66 66 13
GlifName: B_
Width: 2856
Flags: HMW
LayerCount: 2
Fore
SplineSet
1464 1572 m 2
 973 1572 l 1
 973 1582 l 1
 1383 1582 l 2
 1674 1582 1915 1786 1915 2274 c 0
 1915 2762 1674 3064 1383 3064 c 2
 72 3064 l 1
 72 3072 l 1
 1464 3072 l 2
 2144 3072 2570 2846 2570 2314 c 0
 2570 1802 2185 1572 1464 1572 c 2
440 3072 m 1
 1075 3072 l 1
 1075 0 l 1
 440 0 l 1
 440 3072 l 1
1546 0 m 2
 72 0 l 1
 72 8 l 1
 1423 8 l 2
 1755 8 1997 372 1997 860 c 0
 1997 1348 1755 1572 1423 1572 c 2
 973 1572 l 1
 973 1582 l 1
 1546 1582 l 2
 2185 1582 2693 1392 2693 819 c 0
 2693 225 2267 0 1546 0 c 2
EndSplineSet
EndChar

StartChar: C
Encoding: 67 67 14
GlifName: C_
Width: 2877
Flags: HMW
LayerCount: 2
Fore
SplineSet
2665 3072 m 1
 2673 3072 l 1
 2673 2171 l 1
 2593 2446 2469 2671 2282 2857 c 1
 2665 3072 l 1
2673 2171 m 1
 2661 2171 l 1
 2524 2702 2154 3092 1690 3092 c 0
 1080 3092 891 2282 891 1536 c 0
 891 790 1080 -20 1690 -20 c 0
 2249 -20 2588 402 2703 901 c 1
 2713 901 l 1
 2590 356 2234 -40 1648 -40 c 0
 734 -40 174 622 174 1536 c 0
 174 2450 734 3112 1648 3112 c 0
 2172 3112 2530 2716 2673 2171 c 1
2713 901 m 1
 2713 0 l 1
 2705 0 l 1
 2357 240 l 1
 2543 426 2646 634 2713 901 c 1
EndSplineSet
EndChar

StartChar: D
Encoding: 68 68 15
GlifName: D_
Width: 3102
Flags: HMW
LayerCount: 2
Fore
SplineSet
440 3072 m 1
 1075 3072 l 1
 1075 0 l 1
 440 0 l 1
 440 3072 l 1
1382 0 m 2
 72 0 l 1
 72 8 l 1
 1382 8 l 2
 2013 8 2222 729 2222 1536 c 0
 2222 2343 1971 3064 1382 3064 c 2
 72 3064 l 1
 72 3072 l 1
 1382 3072 l 2
 2357 3072 2939 2449 2939 1536 c 0
 2939 623 2316 0 1382 0 c 2
EndSplineSet
EndChar

StartChar: E
Encoding: 69 69 16
GlifName: E_
Width: 2570
Flags: HMW
LayerCount: 2
Fore
SplineSet
2440 922 m 1
 2448 922 l 1
 2448 0 l 1
 72 0 l 1
 72 8 l 1
 1506 8 l 2
 2068 8 2379 402 2440 922 c 1
440 3072 m 1
 1075 3072 l 1
 1075 0 l 1
 440 0 l 1
 440 3072 l 1
72 3072 m 1
 2406 3072 l 1
 2406 2232 l 1
 2398 2232 l 1
 2337 2670 2026 3064 1546 3064 c 2
 72 3064 l 1
 72 3072 l 1
1763 1077 m 1
 1702 1351 1453 1586 1219 1586 c 2
 932 1586 l 1
 932 1594 l 1
 1219 1594 l 2
 1453 1594 1702 1807 1763 2081 c 1
 1772 2081 l 1
 1772 1077 l 1
 1763 1077 l 1
EndSplineSet
EndChar

StartChar: F
Encoding: 70 70 17
GlifName: F_
Width: 2467
Flags: HMW
LayerCount: 2
Fore
SplineSet
72 3072 m 1
 2345 3072 l 1
 2345 2232 l 1
 2337 2232 l 1
 2276 2670 2006 3064 1547 3064 c 2
 72 3064 l 1
 72 3072 l 1
72 8 m 1
 1485 8 l 1
 1485 0 l 1
 72 0 l 1
 72 8 l 1
440 3072 m 1
 1075 3072 l 1
 1075 0 l 1
 440 0 l 1
 440 3072 l 1
1763 1016 m 1
 1702 1290 1493 1524 1178 1524 c 2
 911 1524 l 1
 911 1532 l 1
 1178 1532 l 2
 1493 1532 1702 1746 1763 2020 c 1
 1771 2020 l 1
 1771 1016 l 1
 1763 1016 l 1
EndSplineSet
EndChar

StartChar: G
Encoding: 71 71 18
GlifName: G_
Width: 3102
Flags: HMW
LayerCount: 2
Fore
SplineSet
2755 2171 m 1
 2654 2525 2489 2732 2319 2873 c 1
 2747 3072 l 1
 2755 3072 l 1
 2755 2171 l 1
1751 1172 m 1
 3062 1172 l 1
 3062 1164 l 1
 1751 1164 l 1
 1751 1172 l 1
2181 1168 m 1
 2857 1168 l 1
 2857 635 l 1
 2591 356 2296 -40 1628 -40 c 0
 715 -40 174 581 174 1536 c 0
 174 2491 857 3112 1689 3112 c 0
 2213 3112 2651 2675 2755 2171 c 1
 2747 2171 l 1
 2665 2613 2237 3090 1741 3090 c 0
 1131 3090 891 2282 891 1536 c 0
 891 790 1038 -32 1628 -32 c 0
 1972 -32 2120 340 2181 512 c 1
 2181 1168 l 1
EndSplineSet
EndChar

StartChar: H
Encoding: 72 72 19
GlifName: H_
Width: 3245
Flags: HMW
LayerCount: 2
Fore
SplineSet
993 1520 m 1
 2263 1520 l 1
 2263 1512 l 1
 993 1512 l 1
 993 1520 l 1
1813 8 m 1
 3185 8 l 1
 3185 0 l 1
 1813 0 l 1
 1813 8 l 1
72 8 m 1
 1444 8 l 1
 1444 0 l 1
 72 0 l 1
 72 8 l 1
1813 3072 m 1
 3185 3072 l 1
 3185 3064 l 1
 1813 3064 l 1
 1813 3072 l 1
72 3072 m 1
 1444 3072 l 1
 1444 3064 l 1
 72 3064 l 1
 72 3072 l 1
2181 3072 m 1
 2816 3072 l 1
 2816 0 l 1
 2181 0 l 1
 2181 3072 l 1
440 3072 m 1
 1075 3072 l 1
 1075 0 l 1
 440 0 l 1
 440 3072 l 1
EndSplineSet
EndChar

StartChar: I
Encoding: 73 73 20
GlifName: I_
Width: 1709
Flags: HMW
LayerCount: 2
Fore
SplineSet
72 8 m 1
 1649 8 l 1
 1649 0 l 1
 72 0 l 1
 72 8 l 1
72 3072 m 1
 1649 3072 l 1
 1649 3064 l 1
 72 3064 l 1
 72 3072 l 1
522 3072 m 1
 1157 3072 l 1
 1157 0 l 1
 522 0 l 1
 522 3072 l 1
EndSplineSet
EndChar

StartChar: J
Encoding: 74 74 21
GlifName: J_
Width: 2184
Flags: HMW
LayerCount: 2
Fore
SplineSet
547 3072 m 1
 2124 3072 l 1
 2124 3064 l 1
 547 3064 l 1
 547 3072 l 1
1079 3072 m 1
 1714 3072 l 1
 1714 696 l 1
 1550 307 1329 -122 731 -122 c 0
 313 -122 51 123 51 430 c 0
 51 663 224 819 428 819 c 0
 612 819 780 683 780 454 c 0
 780 249 623 93 424 93 c 0
 275 93 160 145 123 190 c 1
 205 39 420 -114 721 -114 c 0
 1032 -114 1079 204 1079 778 c 2
 1079 3072 l 1
EndSplineSet
Substitution2: "'ss02' Style Set 2 lookup 4-1" J.alt
EndChar

StartChar: K
Encoding: 75 75 22
GlifName: K_
Width: 3143
Flags: HMW
LayerCount: 2
Fore
SplineSet
72 8 m 1
 1444 8 l 1
 1444 0 l 1
 72 0 l 1
 72 8 l 1
72 3072 m 1
 1485 3072 l 1
 1485 3064 l 1
 72 3064 l 1
 72 3072 l 1
440 3072 m 1
 1075 3072 l 1
 1075 0 l 1
 440 0 l 1
 440 3072 l 1
604 888 m 1
 592 888 l 1
 2452 3064 l 1
 2464 3064 l 1
 604 888 l 1
1649 8 m 1
 3123 8 l 1
 3123 0 l 1
 1649 0 l 1
 1649 8 l 1
2939 3064 m 1
 1956 3064 l 1
 1956 3072 l 1
 2939 3072 l 1
 2939 3064 l 1
2804 0 m 1
 2067 0 l 1
 1175 1569 l 1
 1595 2046 l 1
 2804 0 l 1
EndSplineSet
EndChar

StartChar: L
Encoding: 76 76 23
GlifName: L_
Width: 2518
Flags: HMW
LayerCount: 2
Fore
SplineSet
440 3072 m 1
 1075 3072 l 1
 1075 0 l 1
 440 0 l 1
 440 3072 l 1
72 3072 m 1
 1444 3072 l 1
 1444 3064 l 1
 72 3064 l 1
 72 3072 l 1
2437 0 m 1
 72 0 l 1
 72 8 l 1
 1495 8 l 2
 2098 8 2368 402 2429 922 c 1
 2437 922 l 1
 2437 0 l 1
EndSplineSet
EndChar

StartChar: M
Encoding: 77 77 24
GlifName: M_
Width: 3614
Flags: HMW
LayerCount: 2
Fore
SplineSet
3553 3072 m 1
 3553 3064 l 1
 3267 3064 l 1
 3267 0 l 1
 2632 0 l 1
 2632 3072 l 1
 3553 3072 l 1
92 8 m 1
 714 8 l 1
 714 0 l 1
 92 0 l 1
 92 8 l 1
2304 8 m 1
 3553 8 l 1
 3553 0 l 1
 2304 0 l 1
 2304 8 l 1
1851 872 m 1
 2628 3072 l 1
 2636 3072 l 1
 1542 -40 l 1
 1530 -40 l 1
 391 3072 l 1
 1030 3072 l 1
 1851 872 l 1
387 3064 m 1
 72 3064 l 1
 72 3072 l 1
 396 3072 l 1
 396 0 l 1
 387 0 l 1
 387 3064 l 1
EndSplineSet
EndChar

StartChar: N
Encoding: 78 78 25
GlifName: N_
Width: 3061
Flags: HMW
LayerCount: 2
Fore
SplineSet
2562 3072 m 1
 2570 3072 l 1
 2570 -40 l 1
 2562 -40 l 1
 482 3072 l 1
 1239 3072 l 1
 2562 1042 l 1
 2562 3072 l 1
2091 3072 m 1
 3000 3072 l 1
 3000 3064 l 1
 2091 3064 l 1
 2091 3072 l 1
72 8 m 1
 961 8 l 1
 961 0 l 1
 72 0 l 1
 72 8 l 1
477 3064 m 1
 72 3064 l 1
 72 3072 l 1
 486 3072 l 1
 486 0 l 1
 477 0 l 1
 477 3064 l 1
EndSplineSet
EndChar

StartChar: O
Encoding: 79 79 26
GlifName: O_
Width: 3122
Flags: HMW
LayerCount: 2
Fore
SplineSet
1567 -40 m 0
 694 -40 174 643 174 1536 c 0
 174 2429 736 3112 1567 3112 c 0
 2398 3112 2959 2429 2959 1536 c 0
 2959 643 2440 -40 1567 -40 c 0
1567 3104 m 0
 1038 3104 891 2384 891 1536 c 0
 891 688 998 -32 1567 -32 c 0
 2136 -32 2242 688 2242 1536 c 0
 2242 2384 2096 3104 1567 3104 c 0
EndSplineSet
EndChar

StartChar: P
Encoding: 80 80 27
GlifName: P_
Width: 2754
Flags: HMW
LayerCount: 2
Fore
SplineSet
440 3072 m 1
 1075 3072 l 1
 1075 0 l 1
 440 0 l 1
 440 3072 l 1
72 8 m 1
 1444 8 l 1
 1444 0 l 1
 72 0 l 1
 72 8 l 1
1485 1388 m 2
 891 1388 l 1
 891 1396 l 1
 1403 1396 l 2
 1756 1396 1915 1848 1915 2212 c 0
 1915 2576 1756 3064 1403 3064 c 2
 72 3064 l 1
 72 3072 l 1
 1485 3072 l 2
 2268 3072 2612 2744 2612 2212 c 0
 2612 1680 2268 1388 1485 1388 c 2
EndSplineSet
EndChar

StartChar: Q
Encoding: 81 81 28
GlifName: Q_
Width: 3122
Flags: HMW
LayerCount: 2
Fore
SplineSet
1567 -40 m 0
 694 -40 174 643 174 1536 c 0
 174 2429 736 3112 1567 3112 c 0
 2398 3112 2959 2429 2959 1536 c 0
 2959 643 2440 -40 1567 -40 c 0
1567 3104 m 0
 1038 3104 891 2384 891 1536 c 0
 891 688 998 -32 1567 -32 c 0
 2136 -32 2242 688 2242 1536 c 0
 2242 2384 2096 3104 1567 3104 c 0
2386 -1016 m 1
 2386 -1024 l 1
 1370 -1024 1198 -795 1198 16 c 1
 1445 -57 1679 -58 1915 16 c 1
 1915 -730 1940 -1016 2386 -1016 c 1
EndSplineSet
EndChar

StartChar: R
Encoding: 82 82 29
GlifName: R_
Width: 3040
Flags: HMW
LayerCount: 2
Fore
SplineSet
1505 1572 m 2
 809 1572 l 1
 809 1582 l 1
 1403 1582 l 2
 1797 1582 1997 1827 1997 2314 c 0
 1997 2801 1797 3064 1403 3064 c 2
 72 3064 l 1
 72 3072 l 1
 1505 3072 l 2
 2185 3072 2652 2846 2652 2314 c 0
 2652 1782 2226 1572 1505 1572 c 2
72 8 m 1
 1526 8 l 1
 1526 0 l 1
 72 0 l 1
 72 8 l 1
481 3072 m 1
 1116 3072 l 1
 1116 0 l 1
 481 0 l 1
 481 3072 l 1
3000 54 m 1
 2934 18 2755 -30 2509 -30 c 0
 1391 -30 2411 1572 1403 1572 c 2
 809 1572 l 1
 809 1582 l 1
 1731 1582 l 2
 3074 1582 2261 4 2765 4 c 0
 2851 4 2938 30 2996 58 c 1
 3000 54 l 1
EndSplineSet
Substitution2: "'ss01' Style Set 1 lookup 2-1" R.alt
EndChar

StartChar: S
Encoding: 83 83 30
GlifName: S_
Width: 2446
Flags: HMW
LayerCount: 2
Fore
SplineSet
2120 2192 m 1
 2109 2192 l 1
 1945 2764 1626 3100 1145 3100 c 0
 813 3100 645 2884 645 2601 c 0
 645 1905 2284 2068 2284 881 c 0
 2284 308 1838 -62 1260 -62 c 0
 622 -62 334 429 174 921 c 1
 184 921 l 1
 342 431 634 -52 1244 -52 c 0
 1637 -52 1874 209 1874 573 c 0
 1874 1351 215 1107 215 2294 c 0
 215 2806 650 3112 1125 3112 c 0
 1629 3112 1956 2770 2120 2192 c 1
2112 3112 m 1
 2120 3112 l 1
 2120 2192 l 1
 2020 2476 1922 2687 1734 2873 c 1
 2112 3112 l 1
182 -40 m 1
 174 -40 l 1
 174 921 l 1
 304 584 409 389 571 221 c 1
 182 -40 l 1
EndSplineSet
EndChar

StartChar: T
Encoding: 84 84 31
GlifName: T_
Width: 2774
Flags: HMW
LayerCount: 2
Fore
SplineSet
625 8 m 1
 2161 8 l 1
 2161 0 l 1
 625 0 l 1
 625 8 l 1
1075 3070 m 1
 1711 3070 l 1
 1711 0 l 1
 1075 0 l 1
 1075 3070 l 1
1976 3064 m 2
 809 3064 l 2
 370 3064 141 2609 80 2089 c 1
 72 2089 l 1
 72 3072 l 1
 2714 3072 l 1
 2714 2089 l 1
 2705 2089 l 1
 2644 2609 2415 3064 1976 3064 c 2
EndSplineSet
EndChar

StartChar: U
Encoding: 85 85 32
GlifName: U_
Width: 2959
Flags: HMW
LayerCount: 2
Fore
SplineSet
2099 3072 m 1
 2898 3072 l 1
 2898 3064 l 1
 2099 3064 l 1
 2099 3072 l 1
72 3072 m 1
 1485 3072 l 1
 1485 3064 l 1
 72 3064 l 1
 72 3072 l 1
2484 3072 m 1
 2493 3072 l 1
 2493 942 l 2
 2493 266 2214 -62 1546 -62 c 0
 776 -62 440 234 440 942 c 2
 440 3072 l 1
 1075 3072 l 1
 1075 984 l 2
 1075 444 1172 -26 1700 -26 c 0
 2187 -26 2484 272 2484 942 c 2
 2484 3072 l 1
EndSplineSet
EndChar

StartChar: V
Encoding: 86 86 33
GlifName: V_
Width: 3163
Flags: HMW
LayerCount: 2
Fore
SplineSet
3123 3064 m 1
 2222 3064 l 1
 2222 3072 l 1
 3123 3072 l 1
 3123 3064 l 1
1526 3064 m 1
 51 3064 l 1
 51 3072 l 1
 1526 3072 l 1
 1526 3064 l 1
1866 635 m 1
 2740 3072 l 1
 2750 3072 l 1
 1628 -62 l 1
 1424 -62 l 1
 338 3072 l 1
 1075 3072 l 1
 1866 635 l 1
EndSplineSet
EndChar

StartChar: W
Encoding: 87 87 34
GlifName: W_
Width: 4515
Flags: HMW
LayerCount: 2
Fore
SplineSet
2437 1946 m 1
 1675 -40 l 1
 1505 -40 l 1
 375 3072 l 1
 1096 3072 l 1
 1948 701 l 1
 2455 2024 l 1
 2437 1946 l 1
2679 1907 m 1
 2683 1950 l 1
 3100 3072 l 1
 3111 3072 l 1
 2679 1907 l 1
4475 3064 m 1
 3656 3064 l 1
 3656 3072 l 1
 4475 3072 l 1
 4475 3064 l 1
2347 3072 m 1
 3194 701 l 1
 4088 3072 l 1
 4098 3072 l 1
 2927 -40 l 1
 2820 -40 l 1
 1688 3072 l 1
 2347 3072 l 1
3471 3064 m 1
 51 3064 l 1
 51 3072 l 1
 3471 3072 l 1
 3471 3064 l 1
EndSplineSet
EndChar

StartChar: X
Encoding: 88 88 35
GlifName: X_
Width: 3245
Flags: HMW
LayerCount: 2
Fore
SplineSet
1630 1544 m 1
 1618 1544 l 1
 2578 3064 l 1
 2591 3064 l 1
 1630 1544 l 1
518 0 m 1
 506 0 l 1
 1634 1708 l 1
 1648 1708 l 1
 518 0 l 1
1812 8 m 1
 3205 8 l 1
 3205 0 l 1
 1812 0 l 1
 1812 8 l 1
51 8 m 1
 1034 8 l 1
 1034 0 l 1
 51 0 l 1
 51 8 l 1
1587 3064 m 1
 194 3064 l 1
 194 3072 l 1
 1587 3072 l 1
 1587 3064 l 1
2980 3064 m 1
 2079 3064 l 1
 2079 3072 l 1
 2980 3072 l 1
 2980 3064 l 1
2943 0 m 1
 2206 0 l 1
 440 3072 l 1
 1161 3072 l 1
 2943 0 l 1
EndSplineSet
EndChar

StartChar: Y
Encoding: 89 89 36
GlifName: Y_
Width: 3020
Flags: HMW
LayerCount: 2
Fore
SplineSet
2980 3064 m 1
 2120 3064 l 1
 2120 3072 l 1
 2980 3072 l 1
 2980 3064 l 1
1485 3064 m 1
 51 3064 l 1
 51 3072 l 1
 1485 3072 l 1
 1485 3064 l 1
870 8 m 1
 2284 8 l 1
 2284 0 l 1
 870 0 l 1
 870 8 l 1
1866 1574 m 1
 2597 3064 l 1
 2609 3064 l 1
 1874 1568 l 1
 1874 0 l 1
 1239 0 l 1
 1239 1474 l 1
 317 3072 l 1
 1054 3072 l 1
 1866 1574 l 1
EndSplineSet
EndChar

StartChar: Z
Encoding: 90 90 37
GlifName: Z_
Width: 2528
Flags: HMW
LayerCount: 2
Fore
SplineSet
133 3072 m 1
 2345 3072 l 1
 2345 3064 l 1
 768 8 l 1
 1526 8 l 2
 2088 8 2296 320 2378 840 c 1
 2386 840 l 1
 2386 0 l 1
 51 0 l 1
 51 8 l 1
 1628 3064 l 1
 993 3064 l 2
 431 3064 224 2752 142 2314 c 1
 133 2314 l 1
 133 3072 l 1
EndSplineSet
EndChar

StartChar: a
Encoding: 97 97 38
GlifName: a
Width: 2359
VWidth: 4730
Flags: HMW
LayerCount: 2
Fore
SplineSet
2359 258 m 1
 2265 54 2053 -40 1815 -40 c 0
 1561 -40 1335 38 1335 320 c 2
 1335 1250 l 2
 1335 1565 1255 1898 948 1898 c 0
 711 1898 502 1800 422 1720 c 1
 719 1847 946 1680 946 1487 c 0
 946 1303 766 1192 602 1192 c 0
 418 1192 287 1311 287 1479 c 0
 287 1743 644 1916 1057 1916 c 0
 1733 1916 1909 1623 1909 1250 c 2
 1909 178 l 2
 1909 86 1960 25 2058 25 c 0
 2124 25 2267 86 2351 258 c 1
 2359 258 l 1
1040 1032 m 2
 1548 1032 l 1
 1548 1024 l 1
 1183 1024 l 2
 933 1024 766 784 766 510 c 0
 766 256 854 117 997 117 c 0
 1165 117 1335 267 1335 742 c 1
 1344 742 l 1
 1344 234 1150 -40 696 -40 c 0
 372 -40 143 158 143 462 c 0
 143 806 438 1032 1040 1032 c 2
EndSplineSet
EndChar

StartChar: b
Encoding: 98 98 39
GlifName: b
Width: 2530
VWidth: 4730
Flags: HMW
LayerCount: 2
Fore
SplineSet
893 942 m 0
 893 1564 1120 1922 1540 1922 c 0
 1986 1922 2409 1556 2409 942 c 0
 2409 328 1986 -40 1540 -40 c 0
 1122 -40 893 320 893 942 c 0
901 942 m 0
 901 312 1155 6 1417 6 c 0
 1659 6 1753 353 1753 942 c 0
 1753 1531 1659 1874 1417 1874 c 0
 1155 1874 901 1572 901 942 c 0
328 3064 m 1
 61 3064 l 1
 61 3072 l 1
 901 3072 l 1
 901 0 l 1
 61 0 l 1
 61 8 l 1
 328 8 l 1
 328 3064 l 1
EndSplineSet
EndChar

StartChar: c
Encoding: 99 99 40
GlifName: c
Width: 2094
VWidth: 4730
Flags: HMW
LayerCount: 2
Fore
SplineSet
1872 1542 m 1
 1802 1749 1524 1910 1233 1910 c 0
 848 1910 799 1328 799 942 c 0
 799 476 887 -12 1231 -12 c 0
 1581 -12 1823 234 1929 586 c 1
 1937 586 l 1
 1831 230 1594 -40 1139 -40 c 0
 541 -40 123 287 123 942 c 0
 123 1515 483 1926 1163 1926 c 0
 1601 1926 1935 1681 1935 1366 c 0
 1935 1157 1794 1040 1610 1040 c 0
 1446 1040 1273 1126 1273 1362 c 0
 1273 1567 1450 1669 1589 1669 c 0
 1728 1669 1825 1612 1872 1542 c 1
EndSplineSet
EndChar

StartChar: d
Encoding: 100 100 41
GlifName: d
Width: 2530
VWidth: 4730
Flags: HMW
LayerCount: 2
Fore
SplineSet
1638 940 m 0
 1638 318 1411 -38 991 -38 c 0
 545 -38 123 326 123 940 c 0
 123 1554 545 1924 991 1924 c 0
 1409 1924 1638 1562 1638 940 c 0
1630 940 m 0
 1630 1570 1377 1876 1115 1876 c 0
 873 1876 779 1529 779 940 c 0
 779 351 873 8 1115 8 c 0
 1377 8 1630 310 1630 940 c 0
2470 8 m 1
 2470 0 l 1
 1630 0 l 1
 1630 3064 l 1
 1364 3064 l 1
 1364 3072 l 1
 2204 3072 l 1
 2204 8 l 1
 2470 8 l 1
EndSplineSet
EndChar

StartChar: e
Encoding: 101 101 42
GlifName: e
Width: 2131
VWidth: 4730
Flags: HMW
LayerCount: 2
Fore
SplineSet
397 1064 m 1
 397 1074 l 1
 1407 1074 l 1
 1407 1435 1378 1916 1116 1916 c 0
 833 1916 758 1449 758 983 c 0
 758 455 844 -14 1229 -14 c 0
 1622 -14 1910 242 2012 586 c 1
 2020 586 l 1
 1914 230 1624 -40 1129 -40 c 0
 552 -40 123 307 123 942 c 0
 123 1577 539 1926 1116 1926 c 0
 1726 1926 2016 1510 2016 1064 c 1
 397 1064 l 1
EndSplineSet
EndChar

StartChar: f
Encoding: 102 102 43
GlifName: f
Width: 1576
VWidth: 4730
Flags: HMW
LayerCount: 2
Fore
SplineSet
41 8 m 1
 1413 8 l 1
 1413 0 l 1
 41 0 l 1
 41 8 l 1
41 1884 m 1
 1495 1884 l 1
 1495 1876 l 1
 41 1876 l 1
 41 1884 l 1
1913 2765 m 1
 1874 2902 1720 3104 1380 3104 c 0
 1052 3104 942 2732 942 2212 c 2
 942 0 l 1
 390 0 l 1
 390 2098 l 2
 390 2675 786 3112 1380 3112 c 0
 1732 3112 1946 2879 1946 2646 c 0
 1946 2437 1814 2310 1630 2310 c 0
 1466 2310 1298 2416 1298 2617 c 0
 1298 2812 1453 2931 1618 2931 c 0
 1751 2931 1850 2867 1913 2765 c 1
EndSplineSet
EndChar

StartChar: g
Encoding: 103 103 44
GlifName: g
Width: 2506
VWidth: 4730
Flags: HMW
LayerCount: 2
Fore
SplineSet
192 263 m 0
 192 567 651 678 1000 678 c 1
 1000 670 l 1
 824 670 553 620 553 469 c 0
 553 348 744 344 970 344 c 0
 1114 344 1209 348 1323 348 c 0
 1631 348 2007 222 2007 -336 c 0
 2007 -832 1597 -1064 1044 -1064 c 0
 561 -1064 61 -922 61 -553 c 0
 61 -201 512 -129 696 -129 c 2
 717 -129 l 1
 574 -207 553 -368 553 -459 c 0
 553 -778 727 -1052 1080 -1052 c 0
 1467 -1052 1915 -889 1915 -510 c 0
 1915 -247 1597 -139 1331 -139 c 0
 1225 -139 996 -139 906 -139 c 0
 538 -139 192 -52 192 263 c 0
758 1290 m 0
 758 945 779 678 1000 678 c 0
 1160 678 1241 945 1241 1290 c 0
 1241 1635 1160 1916 1000 1916 c 0
 840 1916 758 1635 758 1290 c 0
164 1290 m 0
 164 1740 607 1926 1000 1926 c 0
 1393 1926 1835 1740 1835 1290 c 0
 1835 840 1393 670 1000 670 c 0
 607 670 164 840 164 1290 c 0
2454 1607 m 1
 2434 1743 2315 1896 2070 1896 c 0
 1861 1896 1618 1778 1536 1422 c 1
 1528 1422 l 1
 1610 1794 1865 1904 2070 1904 c 0
 2340 1904 2466 1719 2466 1563 c 0
 2466 1338 2329 1266 2206 1266 c 0
 2083 1266 1950 1344 1950 1521 c 0
 1950 1656 2059 1766 2204 1766 c 0
 2321 1766 2432 1691 2454 1607 c 1
EndSplineSet
EndChar

StartChar: h
Encoding: 104 104 45
GlifName: h
Width: 2477
VWidth: 4730
Flags: HMW
LayerCount: 2
Fore
SplineSet
1576 1303 m 2
 1576 1647 1551 1818 1379 1818 c 0
 971 1818 901 1282 901 914 c 1
 893 903 l 1
 893 1309 952 1926 1569 1926 c 0
 2028 1926 2151 1662 2151 1306 c 2
 2151 0 l 1
 1576 0 l 1
 1576 1303 l 2
1373 8 m 1
 2417 8 l 1
 2417 0 l 1
 1373 0 l 1
 1373 8 l 1
61 8 m 1
 1106 8 l 1
 1106 0 l 1
 61 0 l 1
 61 8 l 1
328 3064 m 1
 61 3064 l 1
 61 3072 l 1
 901 3072 l 1
 901 0 l 1
 328 0 l 1
 328 3064 l 1
EndSplineSet
EndChar

StartChar: i
Encoding: 105 105 46
GlifName: i
Width: 1238
VWidth: 4730
Flags: HMW
LayerCount: 2
Fore
SplineSet
82 8 m 1
 1188 8 l 1
 1188 0 l 1
 82 0 l 1
 82 8 l 1
246 2765 m 0
 246 2962 397 3112 594 3112 c 0
 791 3112 942 2962 942 2765 c 0
 942 2568 791 2417 594 2417 c 0
 397 2417 246 2568 246 2765 c 0
348 1876 m 1
 82 1876 l 1
 82 1884 l 1
 921 1884 l 1
 921 0 l 1
 348 0 l 1
 348 1876 l 1
EndSplineSet
EndChar

StartChar: j
Encoding: 106 106 47
GlifName: j
Width: 1277
VWidth: 4730
Flags: HMW
LayerCount: 2
Fore
SplineSet
316 2765 m 0
 316 2962 467 3112 664 3112 c 0
 861 3112 1011 2962 1011 2765 c 0
 1011 2568 861 2417 664 2417 c 0
 467 2417 316 2568 316 2765 c 0
983 1884 m 1
 983 -50 l 2
 983 -586 668 -1064 95 -1064 c 0
 -278 -1064 -532 -846 -532 -575 c 0
 -532 -368 -375 -241 -197 -241 c 0
 -33 -241 135 -340 135 -545 c 0
 135 -740 -4 -857 -215 -857 c 0
 -391 -857 -502 -740 -522 -617 c 1
 -514 -838 -276 -1048 43 -1048 c 0
 473 -1048 400 -432 400 88 c 2
 410 1876 l 1
 61 1876 l 1
 61 1884 l 1
 983 1884 l 1
EndSplineSet
EndChar

StartChar: k
Encoding: 107 107 48
GlifName: k
Width: 2563
VWidth: 4730
Flags: HMW
LayerCount: 2
Fore
SplineSet
2388 0 m 1
 1679 0 l 1
 869 1090 l 1
 1983 1884 l 1
 1995 1884 l 1
 1307 1382 l 1
 2388 0 l 1
1409 8 m 1
 2544 8 l 1
 2544 0 l 1
 1409 0 l 1
 1409 8 l 1
2343 1876 m 1
 1470 1876 l 1
 1470 1884 l 1
 2343 1884 l 1
 2343 1876 l 1
61 8 m 1
 1208 8 l 1
 1208 0 l 1
 61 0 l 1
 61 8 l 1
410 3064 m 1
 61 3064 l 1
 61 3072 l 1
 983 3072 l 1
 983 0 l 1
 410 0 l 1
 410 3064 l 1
EndSplineSet
EndChar

StartChar: l
Encoding: 108 108 49
GlifName: l
Width: 1391
VWidth: 4730
Flags: HMW
LayerCount: 2
Fore
SplineSet
61 8 m 1
 1331 8 l 1
 1331 0 l 1
 61 0 l 1
 61 8 l 1
410 3064 m 1
 61 3064 l 1
 61 3072 l 1
 983 3072 l 1
 983 0 l 1
 410 0 l 1
 410 3064 l 1
EndSplineSet
EndChar

StartChar: m
Encoding: 109 109 50
GlifName: m
Width: 3563
VWidth: 4730
Flags: HMW
LayerCount: 2
Fore
SplineSet
2069 1306 m 2
 2069 0 l 1
 1496 0 l 1
 1496 1303 l 2
 1496 1647 1463 1818 1311 1818 c 0
 983 1818 901 1313 901 914 c 1
 893 903 l 1
 893 1309 941 1926 1517 1926 c 0
 1931 1926 2069 1662 2069 1306 c 2
61 8 m 1
 1096 8 l 1
 1096 0 l 1
 61 0 l 1
 61 8 l 1
1301 8 m 1
 2263 8 l 1
 2263 0 l 1
 1301 0 l 1
 1301 8 l 1
2468 8 m 1
 3502 8 l 1
 3502 0 l 1
 2468 0 l 1
 2468 8 l 1
328 1876 m 1
 61 1876 l 1
 61 1884 l 1
 901 1884 l 1
 901 0 l 1
 328 0 l 1
 328 1876 l 1
3236 1306 m 2
 3236 0 l 1
 2662 0 l 1
 2662 1303 l 2
 2662 1647 2631 1818 2479 1818 c 0
 2151 1818 2069 1313 2069 914 c 1
 2061 903 l 1
 2061 1309 2109 1926 2685 1926 c 0
 3099 1926 3236 1662 3236 1306 c 2
EndSplineSet
EndChar

StartChar: n
Encoding: 110 110 51
GlifName: n
Width: 2477
VWidth: 4730
Flags: HMW
LayerCount: 2
Fore
SplineSet
1576 1303 m 2
 1576 1647 1551 1818 1379 1818 c 0
 971 1818 901 1282 901 914 c 1
 893 903 l 1
 893 1309 952 1926 1569 1926 c 0
 2028 1926 2151 1662 2151 1306 c 2
 2151 0 l 1
 1576 0 l 1
 1576 1303 l 2
1373 8 m 1
 2417 8 l 1
 2417 0 l 1
 1373 0 l 1
 1373 8 l 1
61 8 m 1
 1106 8 l 1
 1106 0 l 1
 61 0 l 1
 61 8 l 1
328 1876 m 1
 61 1876 l 1
 61 1884 l 1
 901 1884 l 1
 901 0 l 1
 328 0 l 1
 328 1876 l 1
EndSplineSet
EndChar

StartChar: o
Encoding: 111 111 52
GlifName: o
Width: 2244
VWidth: 4730
Flags: HMW
LayerCount: 2
Fore
SplineSet
738 942 m 0
 738 454 820 -32 1123 -32 c 0
 1426 -32 1508 454 1508 942 c 0
 1508 1430 1426 1916 1123 1916 c 0
 820 1916 738 1430 738 942 c 0
123 942 m 0
 123 1474 504 1926 1123 1926 c 0
 1742 1926 2122 1474 2122 942 c 0
 2122 410 1742 -40 1123 -40 c 0
 504 -40 123 410 123 942 c 0
EndSplineSet
EndChar

StartChar: p
Encoding: 112 112 53
GlifName: p
Width: 2530
VWidth: 4730
Flags: HMW
LayerCount: 2
Fore
SplineSet
893 942 m 0
 893 1564 1120 1922 1540 1922 c 0
 1986 1922 2409 1556 2409 942 c 0
 2409 328 1986 -40 1540 -40 c 0
 1122 -40 893 320 893 942 c 0
901 942 m 0
 901 312 1155 6 1417 6 c 0
 1659 6 1753 353 1753 942 c 0
 1753 1531 1659 1874 1417 1874 c 0
 1155 1874 901 1572 901 942 c 0
61 -1016 m 1
 1167 -1016 l 1
 1167 -1024 l 1
 61 -1024 l 1
 61 -1016 l 1
328 1876 m 1
 61 1876 l 1
 61 1884 l 1
 901 1884 l 1
 901 -1024 l 1
 328 -1024 l 1
 328 1876 l 1
EndSplineSet
EndChar

StartChar: q
Encoding: 113 113 54
GlifName: q
Width: 2530
VWidth: 4730
Flags: HMW
LayerCount: 2
Fore
SplineSet
1638 940 m 0
 1638 318 1411 -38 991 -38 c 0
 545 -38 123 326 123 940 c 0
 123 1554 545 1924 991 1924 c 0
 1409 1924 1638 1562 1638 940 c 0
1630 940 m 0
 1630 1570 1377 1876 1115 1876 c 0
 873 1876 779 1529 779 940 c 0
 779 351 873 8 1115 8 c 0
 1377 8 1630 310 1630 940 c 0
2470 -1016 m 1
 2470 -1024 l 1
 1364 -1024 l 1
 1364 -1016 l 1
 2470 -1016 l 1
2470 1884 m 1
 2470 1876 l 1
 2204 1876 l 1
 2204 -1024 l 1
 1630 -1024 l 1
 1630 1884 l 1
 2470 1884 l 1
EndSplineSet
EndChar

StartChar: r
Encoding: 114 114 55
GlifName: r
Width: 1912
VWidth: 4730
Flags: HMW
LayerCount: 2
Fore
SplineSet
1867 1606 m 1
 1809 1803 1616 1916 1433 1916 c 0
 932 1916 901 1377 901 914 c 1
 893 914 l 1
 893 1414 938 1926 1433 1926 c 0
 1662 1926 1893 1753 1893 1491 c 0
 1893 1300 1770 1139 1553 1139 c 0
 1356 1139 1208 1263 1208 1466 c 0
 1208 1810 1693 1944 1867 1606 c 1
61 8 m 1
 1167 8 l 1
 1167 0 l 1
 61 0 l 1
 61 8 l 1
328 1876 m 1
 61 1876 l 1
 61 1884 l 1
 901 1884 l 1
 901 0 l 1
 328 0 l 1
 328 1876 l 1
EndSplineSet
EndChar

StartChar: s
Encoding: 115 115 56
GlifName: s
Width: 1802
VWidth: 4730
Flags: HMW
LayerCount: 2
Fore
SplineSet
1474 1534 m 1
 1421 1622 1358 1689 1292 1749 c 1
 1546 1926 l 1
 1554 1926 l 1
 1554 1352 l 1
 1550 1352 l 1
 1531.74995455 1415.43823008 1509.52026079 1478.63579381 1474 1534 c 1
1554 1352 m 1
 1546 1352 l 1
 1464 1618 1225 1912 829 1912 c 0
 591 1912 450 1798 450 1643 c 0
 450 1192 1700 1373 1700 602 c 0
 1700 176 1336 -40 959 -40 c 0
 553 -40 256 213 154 594 c 1
 162 594 l 1
 262 215 563 -30 948 -30 c 0
 1214 -30 1401 85 1401 293 c 0
 1401 752 192 528 192 1331 c 0
 192 1655 437 1922 827 1922 c 0
 1229 1922 1472 1622 1554 1352 c 1
162 -40 m 1
 154 -40 l 1
 154 594 l 1
 160 594 l 1
 175 506 209.147916335 437.5 242 379 c 1
 306 273 363 209 420 158 c 1
 162 -40 l 1
EndSplineSet
EndChar

StartChar: t
Encoding: 116 116 57
GlifName: t
Width: 1464
VWidth: 4730
Flags: HMW
LayerCount: 2
Fore
SplineSet
20 1884 m 1
 1331 1884 l 1
 1331 1876 l 1
 20 1876 l 1
 20 1884 l 1
1454 418 m 1
 1356 156 1126 -28 794 -28 c 0
 397 -28 320 188 320 475 c 2
 320 2294 l 1
 504 2294 750 2334 893 2416 c 1
 893 337 l 2
 893 133 938 55 1048 55 c 0
 1183 55 1354 191 1446 418 c 1
 1454 418 l 1
EndSplineSet
EndChar

StartChar: u
Encoding: 117 117 58
GlifName: u
Width: 2477
VWidth: 4730
Flags: HMW
LayerCount: 2
Fore
SplineSet
901 1884 m 1
 901 581 l 2
 901 237 928 66 1100 66 c 0
 1508 66 1576 602 1576 970 c 1
 1586 981 l 1
 1586 575 1527 -40 910 -40 c 0
 451 -40 328 222 328 578 c 2
 328 1876 l 1
 61 1876 l 1
 61 1884 l 1
 901 1884 l 1
2151 8 m 1
 2417 8 l 1
 2417 0 l 1
 1576 0 l 1
 1576 1876 l 1
 1311 1876 l 1
 1311 1884 l 1
 2151 1884 l 1
 2151 8 l 1
EndSplineSet
EndChar

StartChar: v
Encoding: 118 118 59
GlifName: v
Width: 2309
VWidth: 4730
Flags: HMW
LayerCount: 2
Fore
SplineSet
2300 1876 m 1
 1547 1876 l 1
 1547 1884 l 1
 2300 1884 l 1
 2300 1876 l 1
1182 1876 m 1
 -10 1876 l 1
 -10 1884 l 1
 1182 1884 l 1
 1182 1876 l 1
1376 490 m 1
 1945 1884 l 1
 1958 1884 l 1
 1174 -40 l 1
 1026 -40 l 1
 236 1884 l 1
 870 1884 l 1
 1376 490 l 1
EndSplineSet
EndChar

StartChar: w
Encoding: 119 119 60
GlifName: w
Width: 3337
VWidth: 4730
Flags: HMW
LayerCount: 2
Fore
SplineSet
1202 1876 m 1
 -10 1876 l 1
 -10 1884 l 1
 1202 1884 l 1
 1202 1876 l 1
3328 1876 m 1
 2492 1876 l 1
 2492 1884 l 1
 3328 1884 l 1
 3328 1876 l 1
1239 526 m 1
 1819 1926 l 1
 2099 1926 l 1
 2498 616 l 1
 2921 1884 l 1
 2933 1884 l 1
 2289 -40 l 1
 2136 -40 l 1
 1603 1380 l 1
 1016 -40 l 1
 862 -40 l 1
 236 1884 l 1
 846 1884 l 1
 1239 526 l 1
EndSplineSet
EndChar

StartChar: x
Encoding: 120 120 61
GlifName: x
Width: 2309
VWidth: 4730
Flags: HMW
LayerCount: 2
Fore
SplineSet
1170 8 m 1
 2279 8 l 1
 2279 0 l 1
 1170 0 l 1
 1170 8 l 1
30 8 m 1
 764 8 l 1
 764 0 l 1
 30 0 l 1
 30 8 l 1
1202 1876 m 1
 51 1876 l 1
 51 1884 l 1
 1202 1884 l 1
 1202 1876 l 1
2228 1876 m 1
 1536 1876 l 1
 1536 1884 l 1
 2228 1884 l 1
 2228 1876 l 1
2115 0 m 1
 1440 0 l 1
 256 1884 l 1
 911 1884 l 1
 2115 0 l 1
330 0 m 1
 318 0 l 1
 1889 1884 l 1
 1901 1884 l 1
 330 0 l 1
EndSplineSet
EndChar

StartChar: y
Encoding: 121 121 62
GlifName: y
Width: 2387
VWidth: 4730
Flags: HMW
LayerCount: 2
Fore
SplineSet
1284 1876 m 1
 -31 1876 l 1
 -31 1884 l 1
 1284 1884 l 1
 1284 1876 l 1
2439 1876 m 1
 1722 1876 l 1
 1722 1884 l 1
 2439 1884 l 1
 2439 1876 l 1
1552 574 m 1
 1235 -104 l 1
 211 1884 l 1
 887 1884 l 1
 1552 574 l 1
909 -819 m 1
 2135 1884 l 1
 2145 1884 l 1
 930 -793 l 2
 861 -942 761 -1055 585 -1055 c 0
 421 -1055 268 -946 268 -749 c 0
 268 -572 403 -426 596 -426 c 0
 777 -426 936 -585 909 -819 c 1
EndSplineSet
EndChar

StartChar: z
Encoding: 122 122 63
GlifName: z
Width: 1925
VWidth: 4730
Flags: HMW
LayerCount: 2
Fore
SplineSet
823 1876 m 2
 438 1876 225 1594 164 1180 c 1
 156 1180 l 1
 156 1884 l 1
 1798 1884 l 1
 1798 1876 l 1
 688 8 l 1
 1102 8 l 2
 1582 8 1794 246 1855 754 c 1
 1864 754 l 1
 1864 0 l 1
 41 0 l 1
 41 8 l 1
 1147 1876 l 1
 823 1876 l 2
EndSplineSet
EndChar

StartChar: comma
Encoding: 44 44 65
GlifName: comma
Width: 1126
Flags: HMW
LayerCount: 2
Fore
SplineSet
164 323 m 0
 164 520 344 688 561 688 c 0
 782 688 970 500 970 139 c 0
 970 -270 647 -620 156 -620 c 1
 156 -612 l 1
 651 -612 1067 -225 934 356 c 1
 920 163 773 -40 539 -40 c 0
 301 -40 164 126 164 323 c 0
EndSplineSet
EndChar

StartChar: exclam
Encoding: 33 33 67
GlifName: exclam
Width: 1556
Flags: HMW
LayerCount: 2
Fore
SplineSet
1138 2618 m 0
 1092 2020 779 1569 779 1057 c 1
 770 1057 l 1
 770 1569 456 2020 410 2618 c 0
 408 2646 410 2672 410 2696 c 0
 410 2925 521 3104 775 3104 c 0
 1029 3104 1143 2925 1143 2696 c 0
 1143 2672 1140 2646 1138 2618 c 0
EndSplineSet
Refer: 1 46 N 1 0 0 1 246 0 2
EndChar

StartChar: quotesingle
Encoding: 39 39 70
GlifName: quotesingle
Width: 1064
Flags: HMW
LayerCount: 2
Fore
SplineSet
856 2708 m 24
 810 2400 537 2305 537 1855 c 1
 529 1855 l 1
 529 2305 254 2400 208 2708 c 24
 204 2736 204 2758 204 2782 c 0
 204 2983 353 3112 533 3112 c 0
 713 3112 860 2983 860 2782 c 0
 860 2758 860 2736 856 2708 c 24
EndSplineSet
EndChar

StartChar: question
Encoding: 63 63 75
GlifName: question
Width: 2395
Flags: HMW
LayerCount: 2
Fore
SplineSet
1028 1465 m 1
 1405 1571 1532 1914 1532 2294 c 0
 1532 2680 1486 3090 1080 3090 c 0
 644 3090 298 2734 270 2482 c 1
 294 2554 415 2663 582 2663 c 0
 762 2663 917 2550 917 2355 c 0
 917 2140 766 2023 582 2023 c 0
 378 2023 246 2160 246 2379 c 0
 246 2735 632 3112 1172 3112 c 0
 1791 3112 2191 2786 2191 2294 c 0
 2191 1822 1716 1495 1036 1459 c 1
 1036 999 l 1
 1028 999 l 1
 1028 1465 l 1
EndSplineSet
Refer: 1 46 N 1 0 0 1 569 0 2
EndChar

StartChar: parenleft
Encoding: 40 40 76
GlifName: parenleft
Width: 1523
Flags: HMW
LayerCount: 2
Fore
SplineSet
1450 -690 m 1
 1445 -696 l 1
 777 -410 266 378 266 1332 c 0
 266 2286 777 2990 1445 3276 c 1
 1450 3270 l 1
 1044 3004 901 2118 901 1332 c 0
 901 546 1044 -424 1450 -690 c 1
EndSplineSet
EndChar

StartChar: at
Encoding: 64 64 79
GlifName: at
Width: 4136
VWidth: 4730
Flags: HMW
LayerCount: 2
Fore
SplineSet
2369 1465 m 0
 2369 842 2085 286 1614 286 c 0
 1270 286 1000 516 1000 942 c 0
 1000 1556 1447 2166 1935 2166 c 0
 2308 2166 2369 1801 2369 1465 c 0
2357 1418 m 0
 2357 1590 2353 2021 2132 2021 c 0
 1912 2021 1658 1451 1658 943 c 0
 1658 669 1720 435 1859 435 c 0
 2104 435 2357 914 2357 1418 c 0
2273 860 m 2
 2568 2130 l 1
 3182 2130 l 1
 2880 829 l 2
 2851 702 2726 340 2980 340 c 0
 3473 340 3904 933 3904 1642 c 0
 3904 2384 3428 3228 2396 3228 c 0
 1208 3228 234 2142 234 864 c 0
 234 -418 974 -868 1716 -868 c 0
 2380 -868 2868 -656 3208 -258 c 1
 3216 -262 l 1
 2872 -664 2384 -876 1716 -876 c 0
 966 -876 226 -426 226 864 c 0
 226 2146 1196 3236 2396 3236 c 0
 3432 3236 3912 2392 3912 1642 c 0
 3912 966 3531 278 2769 278 c 0
 2282 278 2215 606 2273 860 c 2
EndSplineSet
EndChar

StartChar: dollar
Encoding: 36 36 80
GlifName: dollar
Width: 2436
Flags: HMW
LayerCount: 2
Fore
SplineSet
1321 3400 m 1
 1329 3400 l 1
 1329 -328 l 1
 1321 -328 l 1
 1321 3400 l 1
999 3400 m 1
 1007 3400 l 1
 1007 -328 l 1
 999 -328 l 1
 999 3400 l 1
2136 2550 m 1
 2077 2872 1685 3098 1278 3098 c 0
 926 3098 655 2883 655 2580 c 0
 655 1843 2274 2068 2274 901 c 0
 2274 327 1847 -62 1208 -62 c 0
 447 -62 112 328 112 635 c 0
 112 864 250 1032 471 1032 c 0
 634 1032 795 901 795 680 c 0
 795 475 613 373 453 373 c 0
 300 373 174 464 123 585 c 1
 153 310 484 -50 1188 -50 c 0
 1622 -50 1843 209 1843 574 c 0
 1843 1393 225 1086 225 2273 c 0
 225 2785 741 3112 1237 3112 c 0
 1721 3112 2151 2851 2151 2478 c 0
 2151 2249 2023 2101 1802 2101 c 0
 1639 2101 1478 2208 1478 2423 c 0
 1478 2622 1645 2740 1805 2740 c 0
 1952 2740 2077 2665 2136 2550 c 1
EndSplineSet
EndChar

StartChar: numbersign
Encoding: 35 35 81
GlifName: numbersign
Width: 2580
Flags: HMW
LayerCount: 2
Fore
SplineSet
122 1024 m 1
 2334 1024 l 1
 2334 1016 l 1
 122 1016 l 1
 122 1024 l 1
246 2118 m 1
 2458 2118 l 1
 2458 2110 l 1
 246 2110 l 1
 246 2118 l 1
1856 3088 m 1
 1864 3092 l 1
 1454 -20 l 1
 1446 -24 l 1
 1856 3088 l 1
1086 3092 m 1
 1094 3092 l 1
 684 -20 l 1
 676 -20 l 1
 1086 3092 l 1
EndSplineSet
EndChar

StartChar: slash
Encoding: 47 47 82
GlifName: slash
Width: 2128
Flags: HMW
LayerCount: 2
Fore
SplineSet
1958 3194 m 1
 1966 3194 l 1
 172 -614 l 1
 164 -614 l 1
 1958 3194 l 1
EndSplineSet
EndChar

StartChar: percent
Encoding: 37 37 83
GlifName: percent
Width: 4177
Flags: HMW
LayerCount: 2
Fore
SplineSet
2867 860 m 0
 2867 299 2933 -32 3134 -32 c 0
 3335 -32 3400 299 3400 860 c 0
 3400 1421 3335 1754 3134 1754 c 0
 2933 1754 2867 1421 2867 860 c 0
2232 860 m 0
 2232 1446 2672 1762 3134 1762 c 0
 3596 1762 4034 1446 4034 860 c 0
 4034 274 3514 -40 3134 -40 c 0
 2672 -40 2232 274 2232 860 c 0
3165 3072 m 1
 3175 3072 l 1
 1013 0 l 1
 1003 0 l 1
 3165 3072 l 1
778 2212 m 0
 778 1651 843 1318 1044 1318 c 0
 1245 1318 1311 1651 1311 2212 c 0
 1311 2773 1245 3104 1044 3104 c 0
 843 3104 778 2773 778 2212 c 0
144 2212 m 0
 144 2798 582 3112 1044 3112 c 0
 1506 3112 1946 2798 1946 2212 c 0
 1946 1626 1424 1310 1044 1310 c 0
 582 1310 144 1626 144 2212 c 0
EndSplineSet
EndChar

StartChar: hyphen
Encoding: 45 45 85
GlifName: hyphen
Width: 1474
Flags: HMW
LayerCount: 2
Fore
SplineSet
246 1130 m 1
 1228 1130 l 1
 1228 1122 l 1
 246 1122 l 1
 246 1130 l 1
EndSplineSet
EndChar

StartChar: plus
Encoding: 43 43 87
GlifName: plus
Width: 2170
Flags: HMW
LayerCount: 2
Fore
SplineSet
1082 450 m 1
 1082 2130 l 1
 1090 2130 l 1
 1090 450 l 1
 1082 450 l 1
246 1298 m 1
 1926 1298 l 1
 1926 1290 l 1
 246 1290 l 1
 246 1298 l 1
EndSplineSet
EndChar

StartChar: less
Encoding: 60 60 89
GlifName: less
Width: 2292
Flags: HMW
LayerCount: 2
Fore
SplineSet
246 1586 m 1
 246 1594 l 1
 2048 2458 l 1
 2048 2450 l 1
 246 1586 l 1
246 1582 m 1
 246 1590 l 1
 2048 724 l 1
 2048 716 l 1
 246 1582 l 1
EndSplineSet
EndChar

StartChar: backslash
Encoding: 92 92 91
GlifName: backslash
Width: 2128
Flags: HMW
LayerCount: 2
Fore
SplineSet
172 3194 m 1
 1966 -614 l 1
 1958 -614 l 1
 164 3194 l 1
 172 3194 l 1
EndSplineSet
EndChar

StartChar: bracketleft
Encoding: 91 91 92
GlifName: bracketleft
Width: 1453
Flags: HMW
LayerCount: 2
Fore
SplineSet
1331 -614 m 1
 226 -614 l 1
 226 -606 l 1
 1331 -606 l 1
 1331 -614 l 1
1331 3186 m 1
 226 3186 l 1
 226 3194 l 1
 1331 3194 l 1
 1331 3186 l 1
840 3194 m 1
 840 -614 l 1
 226 -614 l 1
 226 3194 l 1
 840 3194 l 1
EndSplineSet
EndChar

StartChar: braceleft
Encoding: 123 123 93
GlifName: braceleft
Width: 1359
VWidth: 4730
Flags: HMW
LayerCount: 2
Fore
SplineSet
1237 3194 m 1
 1237 3186 l 1
 983 3186 852 2908 852 2650 c 0
 852 2379 991 2196 991 1827 c 0
 991 1487 775 1372 226 1290 c 1
 226 1298 l 1
 348 1338 472 1454 472 1622 c 0
 472 1880 226 2064 226 2585 c 0
 226 2990 459 3194 1237 3194 c 1
1237 -614 m 1
 459 -614 226 -405 226 0 c 0
 226 521 472 704 472 962 c 0
 472 1130 348 1246 226 1286 c 1
 226 1294 l 1
 775 1212 991 1098 991 758 c 0
 991 389 852 205 852 -66 c 0
 852 -324 983 -606 1237 -606 c 1
 1237 -614 l 1
EndSplineSet
EndChar

StartChar: bar
Encoding: 124 124 96
GlifName: bar
Width: 942
VWidth: 4730
Flags: HMW
LayerCount: 2
Fore
SplineSet
466 3194 m 1
 476 3194 l 1
 476 -1024 l 1
 466 -1024 l 1
 466 3194 l 1
EndSplineSet
EndChar

StartChar: cent
Encoding: 162 162 98
GlifName: cent
Width: 2094
VWidth: 4730
Flags: HMW
LayerCount: 2
Fore
SplineSet
1157 2274 m 1
 1157 -348 l 1
 1149 -348 l 1
 1149 2274 l 1
 1157 2274 l 1
EndSplineSet
Refer: 40 99 N 1 0 0 1 0 0 2
EndChar

StartChar: sterling
Encoding: 163 163 99
GlifName: sterling
Width: 2686
VWidth: 4730
Flags: HMW
LayerCount: 2
Fore
SplineSet
2589 889 m 1
 2589 90 2298 -122 1831 -122 c 0
 1269 -122 1024 122 766 122 c 0
 598 122 348 40 308 -82 c 1
 300 -82 l 1
 361 222 713 643 1114 643 c 0
 1483 643 1666 504 1937 504 c 0
 2236 504 2581 553 2581 889 c 1
 2589 889 l 1
1904 1640 m 1
 1904 1632 l 1
 62 1632 l 1
 62 1640 l 1
 1904 1640 l 1
402 2252 m 0
 402 2826 851 3112 1572 3112 c 0
 2236 3112 2588 2726 2588 2390 c 0
 2588 2161 2437 2003 2243 2003 c 0
 2059 2003 1868 2130 1868 2355 c 0
 1868 2560 2045 2703 2225 2703 c 0
 2417 2703 2515 2575 2556 2507 c 1
 2486 2800 2177 3086 1654 3086 c 0
 1228 3086 1102 2741 1102 2396 c 0
 1102 1990 1332 1803 1332 1454 c 0
 1332 696 250 696 304 -82 c 1
 294 -82 l 1
 216 488 734 808 734 1070 c 0
 734 1536 402 1780 402 2252 c 0
EndSplineSet
EndChar

StartChar: section
Encoding: 167 167 101
GlifName: section
Width: 1951
VWidth: 4730
Flags: HMW
LayerCount: 2
Fore
SplineSet
553 2669 m 0
 553 2214 1792 2213 1792 1587 c 0
 1792 1292 1563 1190 1362 1063 c 1
 1327 1075 l 1
 1433 1155 1521 1202 1521 1333 c 0
 1521 1787 274 1703 274 2449 c 0
 274 2875 632 3112 1022 3112 c 0
 1362 3112 1775 2975 1775 2541 c 0
 1775 2353 1653 2206 1468 2206 c 0
 1305 2206 1186 2329 1186 2497 c 0
 1186 2649 1322 2777 1481 2777 c 0
 1584 2777 1665 2728 1702 2683 c 1
 1639 2937 1337 3068 1022 3068 c 0
 787 3068 553 2886 553 2669 c 0
1788 664 m 0
 1788 238 1450 -40 938 -40 c 0
 578 -40 122 102 122 537 c 0
 122 725 245 872 430 872 c 0
 593 872 713 750 713 582 c 0
 713 430 579 309 420 309 c 0
 297 309 217 379 193 424 c 1
 247 144 603 4 938 4 c 0
 1319 4 1479 237 1479 413 c 0
 1479 868 197 828 197 1434 c 0
 197 1749 438 1922 598 2028 c 1
 641 2028 l 1
 584 1978 494 1878 494 1749 c 0
 494 1295 1788 1410 1788 664 c 0
EndSplineSet
EndChar

StartChar: asciitilde
Encoding: 126 126 104
GlifName: asciitilde
Width: 2818
VWidth: 4730
Flags: HMW
LayerCount: 2
Fore
SplineSet
831 1729 m 0
 613 1729 418 1637 418 1404 c 1
 410 1404 l 1
 410 1876 655 2150 1020 2150 c 0
 1470 2150 1531 1765 1945 1765 c 0
 2203 1765 2400 1855 2400 2088 c 1
 2408 2088 l 1
 2408 1616 2163 1343 1798 1343 c 0
 1278 1343 1273 1729 831 1729 c 0
EndSplineSet
EndChar

StartChar: copyright
Encoding: 169 169 105
GlifName: copyright
Width: 3562
Flags: HMW
LayerCount: 2
Fore
SplineSet
204 1536 m 0
 204 2408 910 3112 1782 3112 c 0
 2654 3112 3358 2408 3358 1536 c 0
 3358 664 2654 -40 1782 -40 c 0
 910 -40 204 664 204 1536 c 0
212 1536 m 0
 212 672 918 -32 1782 -32 c 0
 2646 -32 3350 672 3350 1536 c 0
 3350 2400 2646 3104 1782 3104 c 0
 918 3104 212 2400 212 1536 c 0
EndSplineSet
Refer: 14 67 N 0.6 0 0 0.6 827 614 2
EndChar

StartChar: registered
Encoding: 174 174 106
GlifName: registered
Width: 3562
Flags: HMW
LayerCount: 2
Fore
SplineSet
204 1536 m 0
 204 2408 910 3112 1782 3112 c 0
 2654 3112 3358 2408 3358 1536 c 0
 3358 664 2654 -40 1782 -40 c 0
 910 -40 204 664 204 1536 c 0
212 1536 m 0
 212 672 918 -32 1782 -32 c 0
 2646 -32 3350 672 3350 1536 c 0
 3350 2400 2646 3104 1782 3104 c 0
 918 3104 212 2400 212 1536 c 0
EndSplineSet
Refer: 29 82 N 0.6 0 0 0.6 913 606 2
EndChar

StartChar: logicalnot
Encoding: 172 172 107
GlifName: logicalnot
Width: 1990
Flags: HMW
LayerCount: 2
Fore
SplineSet
1736 2510 m 1
 246 2510 l 1
 246 2520 l 1
 1744 2520 l 1
 1744 1692 l 1
 1736 1692 l 1
 1736 2510 l 1
EndSplineSet
EndChar

StartChar: guillemotleft
Encoding: 171 171 108
GlifName: guillemotleft
Width: 2969
Flags: HMW
LayerCount: 2
Fore
SplineSet
2011 1590 m 1
 2728 598 l 1
 2723 594 l 1
 1250 1556 l 1
 1250 1618 l 1
 2723 2580 l 1
 2728 2576 l 1
 2011 1590 l 1
823 1590 m 1
 1581 598 l 1
 1577 594 l 1
 102 1556 l 1
 102 1618 l 1
 1577 2580 l 1
 1581 2576 l 1
 823 1590 l 1
EndSplineSet
EndChar

StartChar: mu
Encoding: 181 181 111
GlifName: mu
Width: 2334
VWidth: 4730
Flags: HMW
LayerCount: 2
Fore
SplineSet
1034 -504 m 0
 1170 -504 1276 -622 1276 -778 c 0
 1276 -938 1191 -1064 891 -1064 c 0
 605 -1064 358 -864 358 -496 c 2
 358 1314 l 1
 366 1314 l 1
 366 -496 l 2
 366 -856 617 -1098 981 -1048 c 1
 981 -1048 l 1
 883 -1016 788 -918 788 -762 c 0
 788 -626 898 -504 1034 -504 c 0
EndSplineSet
Refer: 58 117 N 1 0 0 1 0 0 2
EndChar

StartChar: asciicircum
Encoding: 94 94 113
GlifName: asciicircum
Width: 2232
Flags: HMW
LayerCount: 2
Fore
SplineSet
1114 2962 m 1
 418 2576 l 1
 410 2580 l 1
 984 3154 l 1
 1250 3154 l 1
 1822 2580 l 1
 1814 2576 l 1
 1114 2962 l 1
EndSplineSet
EndChar

StartChar: degree
Encoding: 176 176 115
GlifName: degree
Width: 1310
Flags: HMW
LayerCount: 2
Fore
SplineSet
164 2786 m 0
 164 3056 386 3276 656 3276 c 0
 926 3276 1146 3056 1146 2786 c 0
 1146 2516 926 2294 656 2294 c 0
 386 2294 164 2516 164 2786 c 0
246 2786 m 0
 246 2552 422 2376 656 2376 c 0
 890 2376 1064 2552 1064 2786 c 0
 1064 3020 890 3194 656 3194 c 0
 422 3194 246 3020 246 2786 c 0
EndSplineSet
EndChar

StartChar: onequarter
Encoding: 188 188 119
GlifName: onequarter
Width: 2747
Flags: HMW
LayerCount: 2
Fore
SplineSet
2146 2662 m 1
 2154 2662 l 1
 172 -410 l 1
 164 -410 l 1
 2146 2662 l 1
EndSplineSet
Refer: 6 52 N 0.6 0 0 0.6 1106 -422 2
Refer: 3 49 N 0.6 0 0 0.6 -32 1458 2
EndChar

StartChar: onehalf
Encoding: 189 189 120
GlifName: onehalf
Width: 2867
Flags: HMW
LayerCount: 2
Fore
SplineSet
2146 2662 m 1
 2154 2662 l 1
 172 -410 l 1
 164 -410 l 1
 2146 2662 l 1
EndSplineSet
Refer: 4 50 N 0.6 0 0 0.6 1396 -414 2
Refer: 3 49 N 0.6 0 0 0.6 -32 1458 2
EndChar

StartChar: threequarters
Encoding: 190 190 121
GlifName: threequarters
Width: 2993
Flags: HMW
LayerCount: 2
Fore
SplineSet
2392 2662 m 1
 2400 2662 l 1
 418 -410 l 1
 410 -410 l 1
 2392 2662 l 1
EndSplineSet
Refer: 5 51 N 0.6 0 0 0.6 20 1450 2
Refer: 6 52 N 0.6 0 0 0.6 1352 -422 2
EndChar

StartChar: grave
Encoding: 96 96 123
GlifName: grave
Width: 1678
Flags: HMW
LayerCount: 2
Fore
SplineSet
491 2870 m 2
 353 2847 226 2953 226 3092 c 0
 226 3231 376 3373 533 3310 c 2
 1440 2974 l 1
 1436 2966 l 1
 491 2870 l 2
EndSplineSet
EndChar

StartChar: acute
Encoding: 180 180 124
GlifName: acute
Width: 1678
Flags: HMW
LayerCount: 2
Fore
SplineSet
1188 2870 m 2
 244 2966 l 1
 240 2974 l 1
 1147 3310 l 2
 1304 3373 1454 3231 1454 3092 c 0
 1454 2953 1326 2847 1188 2870 c 2
EndSplineSet
EndChar

StartChar: cedilla
Encoding: 184 184 128
GlifName: cedilla
Width: 2252
Flags: HMW
LayerCount: 2
Fore
SplineSet
1266 -574 m 0
 1266 -356 1093 -324 888 -324 c 1
 1258 168 l 1
 1270 168 l 1
 1024 -160 l 1
 1421 -172 1720 -262 1720 -492 c 0
 1720 -696 1524 -865 905 -865 c 1
 905 -856 l 1
 1147 -856 1266 -734 1266 -574 c 0
EndSplineSet
EndChar

StartChar: divide
Encoding: 247 247 131
GlifName: divide
Width: 2497
Flags: HMW
LayerCount: 2
Fore
SplineSet
184.659179688 1622 m 1
 2311.88085938 1622 l 1
 2311.88085938 1614 l 1
 184.659179688 1614 l 1
 184.659179688 1622 l 1
881 798 m 0
 881 1001 1047 1167 1250 1167 c 0
 1453 1167 1618 1001 1618 798 c 0
 1618 595 1453 431 1250 431 c 0
 1047 431 881 595 881 798 c 0
881 2375 m 0
 881 2578 1047 2744 1250 2744 c 0
 1453 2744 1618 2578 1618 2375 c 0
 1618 2172 1453 2008 1250 2008 c 0
 1047 2008 881 2172 881 2375 c 0
EndSplineSet
EndChar

StartChar: ring
Encoding: 730 730 271
GlifName: ring
Width: 1310
VWidth: 0
Flags: HMW
LayerCount: 2
Fore
SplineSet
245 2786 m 0
 245 2994 407 3154 656 3154 c 0
 905 3154 1065 2994 1065 2786 c 0
 1065 2578 905 2416 656 2416 c 0
 407 2416 245 2578 245 2786 c 0
491 2786 m 0
 491 2573 525 2424 656 2424 c 0
 787 2424 819 2573 819 2786 c 0
 819 2999 787 3146 656 3146 c 0
 525 3146 491 2999 491 2786 c 0
EndSplineSet
EndChar

StartChar: tilde
Encoding: 732 732 272
GlifName: tilde
Width: 1834
VWidth: 0
Flags: HMW
LayerCount: 2
Fore
SplineSet
483 2679 m 0
 327 2679 212 2588 212 2437 c 1
 204 2437 l 1
 204 2785 348 3039 610 3039 c 0
 937 3039 1081 2716 1352 2716 c 0
 1528 2716 1622 2806 1622 2957 c 1
 1630 2957 l 1
 1630 2567 1569 2355 1266 2355 c 0
 951 2355 782 2679 483 2679 c 0
EndSplineSet
EndChar

StartChar: AE
Encoding: 198 198 274
GlifName: A_E_
Width: 4280
Flags: HMW
LayerCount: 2
Fore
SplineSet
2150 3072 m 1
 2162 3072 l 1
 452 0 l 1
 440 0 l 1
 2150 3072 l 1
62 8 m 1
 962 8 l 1
 962 0 l 1
 62 0 l 1
 62 8 l 1
1008 1008 m 1
 2192 1008 l 1
 2192 1000 l 1
 1008 1000 l 1
 1008 1008 l 1
2150 3072 m 1
 2786 3072 l 1
 2786 0 l 1
 2150 0 l 1
 2150 3072 l 1
2150 3072 m 1
 4116 3072 l 1
 4116 2232 l 1
 4108 2232 l 1
 4047 2670 3736 3064 3277 3064 c 2
 2150 3064 l 1
 2150 3072 l 1
4158 0 m 1
 1782 0 l 1
 1782 8 l 1
 3235 8 l 2
 3776 8 4088 402 4149 922 c 1
 4158 922 l 1
 4158 0 l 1
3474 1077 m 1
 3413 1351 3163 1586 2929 1586 c 2
 2683 1586 l 1
 2683 1594 l 1
 2929 1594 l 2
 3163 1594 3413 1807 3474 2081 c 1
 3482 2081 l 1
 3482 1077 l 1
 3474 1077 l 1
EndSplineSet
EndChar

StartChar: ae
Encoding: 230 230 277
GlifName: ae
Width: 3411
VWidth: 4730
Flags: HMW
LayerCount: 2
Fore
SplineSet
286 1479 m 0
 286 1743 644 1916 1057 1916 c 0
 1589 1916 1807 1623 1807 1250 c 1
 1786 742 l 1
 1786 234 1377 -40 902 -40 c 0
 455 -40 144 117 144 462 c 0
 144 806 458 1051 1040 1051 c 2
 1671 1051 l 1
 1671 1042 l 1
 1184 1042 l 2
 934 1042 766 788 766 493 c 0
 766 219 855 -24 1019 -24 c 0
 1191 -24 1335 266 1335 639 c 2
 1335 1250 l 2
 1335 1524 1276 1898 948 1898 c 0
 735 1898 497 1806 395 1700 c 1
 694 1847 946 1680 946 1487 c 0
 946 1303 766 1192 602 1192 c 0
 418 1192 286 1311 286 1479 c 0
2697 1053 m 1
 2693 1434 2668 1916 2406 1916 c 0
 2123 1916 2048 1449 2048 983 c 0
 2048 517 2130 -14 2515 -14 c 0
 2917 -14 3197 238 3301 586 c 1
 3309 586 l 1
 3203 230 2914 -40 2419 -40 c 0
 1903 -40 1536 307 1536 942 c 0
 1536 1577 1890 1926 2406 1926 c 0
 3016 1926 3305 1490 3305 1044 c 1
 1831 1044 l 1
 1831 1053 l 1
 2697 1053 l 1
EndSplineSet
EndChar

StartChar: perthousand
Encoding: 8240 8240 285
GlifName: perthousand
Width: 6184
Flags: HMW
LayerCount: 2
Fore
SplineSet
4874 860 m 0
 4874 299 4939 -32 5140 -32 c 0
 5341 -32 5407 299 5407 860 c 0
 5407 1421 5341 1754 5140 1754 c 0
 4939 1754 4874 1421 4874 860 c 0
4240 860 m 0
 4240 1446 4678 1762 5140 1762 c 0
 5602 1762 6042 1446 6042 860 c 0
 6042 274 5520 -40 5140 -40 c 0
 4678 -40 4240 274 4240 860 c 0
2867 860 m 0
 2867 299 2933 -32 3134 -32 c 0
 3335 -32 3400 299 3400 860 c 0
 3400 1421 3335 1754 3134 1754 c 0
 2933 1754 2867 1421 2867 860 c 0
2232 860 m 0
 2232 1446 2672 1762 3134 1762 c 0
 3596 1762 4034 1446 4034 860 c 0
 4034 274 3514 -40 3134 -40 c 0
 2672 -40 2232 274 2232 860 c 0
3165 3072 m 1
 3175 3072 l 1
 1013 0 l 1
 1003 0 l 1
 3165 3072 l 1
778 2212 m 0
 778 1651 843 1318 1044 1318 c 0
 1245 1318 1311 1651 1311 2212 c 0
 1311 2773 1245 3104 1044 3104 c 0
 843 3104 778 2773 778 2212 c 0
144 2212 m 0
 144 2798 582 3112 1044 3112 c 0
 1506 3112 1946 2798 1946 2212 c 0
 1946 1626 1424 1310 1044 1310 c 0
 582 1310 144 1626 144 2212 c 0
EndSplineSet
EndChar

StartChar: uni2031
Encoding: 8241 8241 286
GlifName: uni2031
Width: 8211
Flags: HMW
LayerCount: 2
Fore
SplineSet
6902 860 m 0
 6902 299 6967 -32 7168 -32 c 0
 7369 -32 7435 299 7435 860 c 0
 7435 1421 7369 1754 7168 1754 c 0
 6967 1754 6902 1421 6902 860 c 0
6267 860 m 0
 6267 1446 6706 1762 7168 1762 c 0
 7630 1762 8069 1446 8069 860 c 0
 8069 274 7548 -40 7168 -40 c 0
 6706 -40 6267 274 6267 860 c 0
4874 860 m 0
 4874 299 4939 -32 5140 -32 c 0
 5341 -32 5407 299 5407 860 c 0
 5407 1421 5341 1754 5140 1754 c 0
 4939 1754 4874 1421 4874 860 c 0
4240 860 m 0
 4240 1446 4678 1762 5140 1762 c 0
 5602 1762 6042 1446 6042 860 c 0
 6042 274 5520 -40 5140 -40 c 0
 4678 -40 4240 274 4240 860 c 0
2867 860 m 0
 2867 299 2933 -32 3134 -32 c 0
 3335 -32 3400 299 3400 860 c 0
 3400 1421 3335 1754 3134 1754 c 0
 2933 1754 2867 1421 2867 860 c 0
2232 860 m 0
 2232 1446 2672 1762 3134 1762 c 0
 3596 1762 4034 1446 4034 860 c 0
 4034 274 3514 -40 3134 -40 c 0
 2672 -40 2232 274 2232 860 c 0
3165 3072 m 1
 3175 3072 l 1
 1013 0 l 1
 1003 0 l 1
 3165 3072 l 1
778 2212 m 0
 778 1651 843 1318 1044 1318 c 0
 1245 1318 1311 1651 1311 2212 c 0
 1311 2773 1245 3104 1044 3104 c 0
 843 3104 778 2773 778 2212 c 0
144 2212 m 0
 144 2798 582 3112 1044 3112 c 0
 1506 3112 1946 2798 1946 2212 c 0
 1946 1626 1424 1310 1044 1310 c 0
 582 1310 144 1626 144 2212 c 0
EndSplineSet
EndChar

StartChar: uniFB00
Encoding: 64256 64256 290
GlifName: uniF_B_00
Width: 2866
VWidth: 4730
Flags: HMW
LayerCount: 2
Fore
SplineSet
51 8 m 1
 2735 8 l 1
 2735 0 l 1
 51 0 l 1
 51 8 l 1
51 1884 m 1
 2816 1884 l 1
 2816 1876 l 1
 51 1876 l 1
 51 1884 l 1
2058 2502 m 1
 2023 2692 1772 2898 1493 2898 c 0
 1165 2898 972 2528 972 2008 c 2
 972 0 l 1
 420 0 l 1
 420 1892 l 2
 420 2469 858 2908 1472 2908 c 0
 1824 2908 2079 2654 2079 2421 c 0
 2079 2212 1947 2085 1763 2085 c 0
 1599 2085 1431 2192 1431 2393 c 0
 1431 2594 1569 2705 1741 2705 c 0
 1901 2705 2042 2557 2058 2502 c 1
3240 2722 m 1
 3212 2900 3027 3102 2711 3102 c 0
 2383 3102 2253 2732 2253 2212 c 2
 2253 0 l 1
 1700 0 l 1
 1700 2098 l 2
 1700 2675 2097 3112 2691 3112 c 0
 3043 3112 3256 2879 3256 2646 c 0
 3256 2437 3125 2310 2941 2310 c 0
 2777 2310 2609 2416 2609 2617 c 0
 2609 2818 2764 2931 2936 2931 c 0
 3073 2931 3201 2838 3240 2722 c 1
EndSplineSet
Ligature2: "'liga' Standard Ligatures lookup 0-1" f f
LCarets2: 1 0
EndChar

StartChar: uniFB01
Encoding: 64257 64257 291
GlifName: uniF_B_01
Width: 2569
VWidth: 4730
Flags: HMW
LayerCount: 2
Fore
SplineSet
420 2098 m 2
 420 2696 837 3112 1554 3112 c 0
 1988 3112 2222 2879 2222 2625 c 0
 2222 2416 2091 2289 1907 2289 c 0
 1739 2289 1575 2398 1575 2593 c 0
 1575 2790 1728 2907 1900 2907 c 0
 2049 2907 2169 2818 2208 2683 c 1
 2167 2924 1935 3104 1554 3104 c 0
 1104 3104 972 2732 972 2212 c 2
 972 0 l 1
 420 0 l 1
 420 2098 l 2
51 8 m 1
 2499 8 l 1
 2499 0 l 1
 51 0 l 1
 51 8 l 1
1638 1876 m 1
 51 1876 l 1
 51 1884 l 1
 2212 1884 l 1
 2212 0 l 1
 1638 0 l 1
 1638 1876 l 1
EndSplineSet
Ligature2: "'liga' Standard Ligatures lookup 0-1" f i
LCarets2: 1 0
EndChar

StartChar: uniFB02
Encoding: 64258 64258 292
GlifName: uniF_B_02
Width: 2754
VWidth: 4730
Flags: HMW
LayerCount: 2
Fore
SplineSet
51 8 m 1
 2714 8 l 1
 2714 0 l 1
 51 0 l 1
 51 8 l 1
51 1884 m 1
 1536 1884 l 1
 1536 1876 l 1
 51 1876 l 1
 51 1884 l 1
1812 2990 m 1
 2386 3154 l 1
 2386 0 l 1
 1812 0 l 1
 1812 2990 l 1
1987 2685 m 1
 1963 2881 1776 3100 1452 3100 c 0
 1083 3100 972 2732 972 2212 c 2
 972 0 l 1
 420 0 l 1
 420 2098 l 2
 420 2675 838 3112 1432 3112 c 0
 1784 3112 1997 2879 1997 2625 c 0
 1997 2416 1865 2289 1681 2289 c 0
 1517 2289 1349 2388 1349 2593 c 0
 1349 2798 1488 2911 1669 2911 c 0
 1889 2911 1983 2685 1987 2685 c 1
EndSplineSet
Ligature2: "'liga' Standard Ligatures lookup 0-1" f l
LCarets2: 1 0
EndChar

StartChar: uniFB03
Encoding: 64259 64259 293
GlifName: uniF_B_03
Width: 3808
VWidth: 4730
Flags: HMW
LayerCount: 2
Fore
SplineSet
1659 2098 m 2
 1659 2696 2077 3112 2794 3112 c 0
 3228 3112 3461 2879 3461 2625 c 0
 3461 2416 3330 2289 3146 2289 c 0
 2978 2289 2814 2398 2814 2593 c 0
 2814 2790 2962 2907 3134 2907 c 0
 3312 2907 3419 2806 3446 2683 c 1
 3403 2922 3179 3102 2794 3102 c 0
 2344 3102 2212 2732 2212 2212 c 2
 2212 0 l 1
 1659 0 l 1
 1659 2098 l 2
51 8 m 1
 3738 8 l 1
 3738 0 l 1
 51 0 l 1
 51 8 l 1
420 1892 m 2
 420 2465 858 2908 1472 2908 c 0
 1824 2908 2079 2654 2079 2421 c 0
 2079 2212 1947 2085 1763 2085 c 0
 1599 2085 1431 2192 1431 2393 c 0
 1431 2594 1569 2705 1741 2705 c 0
 1901 2705 2022 2596 2038 2541 c 1
 1983 2711 1776 2896 1493 2896 c 0
 1165 2896 972 2528 972 2008 c 2
 972 0 l 1
 420 0 l 1
 420 1892 l 2
2878 1876 m 1
 51 1876 l 1
 51 1884 l 1
 3451 1884 l 1
 3451 0 l 1
 2878 0 l 1
 2878 1876 l 1
EndSplineSet
Ligature2: "'liga' Standard Ligatures lookup 0-1" f f i
LCarets2: 2 0 0
EndChar

StartChar: uniFB04
Encoding: 64260 64260 294
GlifName: uniF_B_04
Width: 4054
VWidth: 4730
Flags: HMW
LayerCount: 2
Fore
SplineSet
51 8 m 1
 3994 8 l 1
 3994 0 l 1
 51 0 l 1
 51 8 l 1
51 1884 m 1
 2816 1884 l 1
 2816 1876 l 1
 51 1876 l 1
 51 1884 l 1
3093 2990 m 1
 3666 3154 l 1
 3666 0 l 1
 3093 0 l 1
 3093 2990 l 1
2040 2543 m 1
 1985 2713 1772 2898 1493 2898 c 0
 1165 2898 972 2528 972 2008 c 2
 972 0 l 1
 420 0 l 1
 420 1892 l 2
 420 2467 858 2908 1472 2908 c 0
 1824 2908 2079 2654 2079 2421 c 0
 2079 2212 1947 2085 1763 2085 c 0
 1599 2085 1431 2192 1431 2393 c 0
 1431 2594 1569 2705 1741 2705 c 0
 1880 2705 2024 2598 2040 2543 c 1
3258 2706 m 1
 3219 2927 3004 3104 2732 3104 c 0
 2363 3104 2253 2732 2253 2212 c 2
 2253 0 l 1
 1700 0 l 1
 1700 2098 l 2
 1700 2675 2118 3112 2712 3112 c 0
 3064 3112 3277 2879 3277 2625 c 0
 3277 2416 3146 2289 2962 2289 c 0
 2798 2289 2629 2388 2629 2593 c 0
 2629 2798 2768 2911 2949 2911 c 0
 3169 2911 3254 2706 3258 2706 c 1
EndSplineSet
Ligature2: "'liga' Standard Ligatures lookup 0-1" f f l
LCarets2: 2 0 0
EndChar

StartChar: ogonek
Encoding: 731 731 295
GlifName: ogonek
Width: 2252
Flags: HMW
LayerCount: 2
Fore
SplineSet
1641 -503 m 1
 1579 -617 1480 -803 1128 -803 c 0
 858 -803 625 -697 625 -451 c 0
 625 -123 1027 84 1338 176 c 1
 1344 168 l 1
 1258 119 1169 -69 1169 -348 c 0
 1169 -581 1267 -713 1386 -713 c 0
 1505 -713 1567 -621 1637 -499 c 1
 1641 -503 l 1
EndSplineSet
EndChar

StartChar: dotlessi
Encoding: 305 305 296
GlifName: dotlessi
Width: 1309
VWidth: 4730
Flags: HMW
LayerCount: 2
Fore
SplineSet
82 8 m 1
 1229 8 l 1
 1229 0 l 1
 82 0 l 1
 82 8 l 1
368 1876 m 1
 82 1876 l 1
 82 1884 l 1
 942 1884 l 1
 942 0 l 1
 368 0 l 1
 368 1876 l 1
EndSplineSet
EndChar

StartChar: uni0237
Encoding: 567 567 297
GlifName: uni0237
Width: 1338
VWidth: 4730
Flags: HMW
LayerCount: 2
Fore
SplineSet
1024 1884 m 1
 1024 -50 l 2
 1024 -586 708 -1064 135 -1064 c 0
 -238 -1064 -492 -846 -492 -575 c 0
 -492 -368 -334 -241 -156 -241 c 0
 8 -241 176 -340 176 -545 c 0
 176 -740 37 -857 -174 -857 c 0
 -350 -857 -461 -740 -481 -617 c 1
 -473 -838 -235 -1048 84 -1048 c 0
 514 -1048 441 -432 441 88 c 2
 451 1876 l 1
 82 1876 l 1
 82 1884 l 1
 1024 1884 l 1
EndSplineSet
EndChar

StartChar: kgreenlandic
Encoding: 312 312 306
GlifName: kgreenlandic
Width: 2625
VWidth: 4730
Flags: HMW
LayerCount: 2
Fore
SplineSet
2429 0 m 1
 1720 0 l 1
 909 1090 l 1
 2024 1884 l 1
 2036 1884 l 1
 1348 1382 l 1
 2429 0 l 1
1429 8 m 1
 2584 8 l 1
 2584 0 l 1
 1429 0 l 1
 1429 8 l 1
2384 1876 m 1
 1470 1876 l 1
 1470 1884 l 1
 2384 1884 l 1
 2384 1876 l 1
82 8 m 1
 1249 8 l 1
 1249 0 l 1
 82 0 l 1
 82 8 l 1
451 1876 m 1
 82 1876 l 1
 82 1884 l 1
 1024 1884 l 1
 1024 0 l 1
 451 0 l 1
 451 1876 l 1
EndSplineSet
EndChar

StartChar: breve
Encoding: 728 728 307
GlifName: breve
Width: 1228
VWidth: 4730
Flags: HMW
LayerCount: 2
Fore
SplineSet
132 3108 m 1
 132 2918 393 2847 615 2847 c 0
 837 2847 1098 2918 1098 3108 c 1
 1106 3108 l 1
 1106 2715 963 2457 615 2457 c 0
 267 2457 122 2715 122 3108 c 1
 132 3108 l 1
EndSplineSet
EndChar

StartChar: thorn
Encoding: 254 254 318
GlifName: thorn
Width: 2551
VWidth: 4730
Flags: HMW
LayerCount: 2
Fore
SplineSet
913 942 m 0
 913 1564 1141 1922 1561 1922 c 0
 2007 1922 2429 1556 2429 942 c 0
 2429 328 2007 -40 1561 -40 c 0
 1143 -40 913 320 913 942 c 0
921 942 m 0
 921 312 1176 6 1438 6 c 0
 1680 6 1774 353 1774 942 c 0
 1774 1531 1680 1874 1438 1874 c 0
 1176 1874 921 1572 921 942 c 0
62 -1016 m 1
 1209 -1016 l 1
 1209 -1024 l 1
 62 -1024 l 1
 62 -1016 l 1
348 3064 m 1
 62 3064 l 1
 62 3072 l 1
 921 3072 l 1
 921 -1024 l 1
 348 -1024 l 1
 348 3064 l 1
EndSplineSet
EndChar

StartChar: Thorn
Encoding: 222 222 319
GlifName: T_horn
Width: 2744
Flags: HMW
LayerCount: 2
Fore
SplineSet
430 3072 m 1
 1065 3072 l 1
 1065 0 l 1
 430 0 l 1
 430 3072 l 1
62 8 m 1
 1434 8 l 1
 1434 0 l 1
 62 0 l 1
 62 8 l 1
62 3072 m 1
 1434 3072 l 1
 1434 3064 l 1
 62 3064 l 1
 62 3072 l 1
1516 738 m 2
 983 738 l 1
 983 746 l 1
 1372 746 l 2
 1766 746 1905 1234 1905 1598 c 0
 1905 1962 1766 2450 1372 2450 c 2
 983 2450 l 1
 983 2458 l 1
 1516 2458 l 2
 2258 2458 2601 2130 2601 1598 c 0
 2601 1066 2258 738 1516 738 c 2
EndSplineSet
EndChar

StartChar: Dcroat
Encoding: 272 272 320
GlifName: D_croat
Width: 3102
Flags: HMW
LayerCount: 2
Fore
SplineSet
440 3072 m 1
 1075 3072 l 1
 1075 0 l 1
 440 0 l 1
 440 3072 l 1
1382 0 m 2
 72 0 l 1
 72 8 l 1
 1382 8 l 2
 2013 8 2222 729 2222 1536 c 0
 2222 2343 1971 3064 1382 3064 c 2
 72 3064 l 1
 72 3072 l 1
 1382 3072 l 2
 2357 3072 2939 2449 2939 1536 c 0
 2939 623 2316 0 1382 0 c 2
73.5 1498 m 1
 1493.5 1498 l 1
 1493.5 1490 l 1
 73.5 1490 l 1
 73.5 1498 l 1
EndSplineSet
EndChar

StartChar: Lslash
Encoding: 321 321 324
GlifName: L_slash
Width: 2518
Flags: HMW
LayerCount: 2
Fore
SplineSet
62 1474 m 1
 1679 2376 l 1
 1679 2366 l 1
 62 1464 l 1
 62 1474 l 1
EndSplineSet
Refer: 23 76 N 1 0 0 1 0 0 2
EndChar

StartChar: lslash
Encoding: 322 322 325
GlifName: lslash
Width: 1391
VWidth: 4730
Flags: HMW
LayerCount: 2
Fore
SplineSet
40 1556 m 1
 1413 2376 l 1
 1413 2368 l 1
 40 1548 l 1
 40 1556 l 1
EndSplineSet
Refer: 49 108 N 1 0 0 1 0 0 2
EndChar

StartChar: eth
Encoding: 240 240 329
GlifName: eth
Width: 2497
VWidth: 4730
Flags: HMW
LayerCount: 2
Fore
SplineSet
532 2580 m 1
 2355 2580 l 1
 2355 2572 l 1
 532 2572 l 1
 532 2580 l 1
2293 1270 m 0
 2293 410 1851 -40 1192 -40 c 0
 533 -40 122 410 122 1024 c 0
 122 1720 626 2018 1081 2018 c 0
 1515 2018 1626 1646 1626 1146 c 1
 1618 1146 l 1
 1618 1684 1471 1974 1192 1974 c 0
 930 1974 798 1675 798 1024 c 0
 798 455 857 -32 1180 -32 c 0
 1503 -32 1618 495 1618 1146 c 1
 1620 1331 l 1
 1620 2097 1163 3111 430 3111 c 1
 430 3112 l 1
 1485 3112 2293 2303 2293 1270 c 0
EndSplineSet
EndChar

StartChar: OE
Encoding: 338 338 330
GlifName: O_E_
Width: 4064
Flags: HMW
LayerCount: 2
Fore
SplineSet
1649 3064 m 1025,0,0
880 1536 m 0,0,0
 880 729 1079 8 1649 8 c 1,0,0
 1566 0 l 1,0,0
 734 0 164 622 164 1536 c 0,0,0
 164 2450 734 3072 1566 3072 c 1,0,0
 1649 3064 l 1,0,0
 1079 3064 880 2343 880 1536 c 0,0,0
EndSplineSet
Refer: 16 69 N 1 0 0 1 1496 0 2
EndChar

StartChar: germandbls
Encoding: 223 223 332
GlifName: germandbls
Width: 3157
VWidth: 4730
Flags: HMW
LayerCount: 2
Fore
SplineSet
1650 1654 m 1
 1650 1662 l 1
 2096 1662 2211 2076 2211 2338 c 0
 2211 2632 2098 3102 1692 3102 c 0
 1185 3102 1044 2552 1044 1970 c 2
 1044 0 l 1
 430 0 l 1
 430 2012 l 2
 430 2761 1044 3112 1712 3112 c 0
 2298 3112 2871 2822 2871 2380 c 0
 2871 1929 2474 1654 1650 1654 c 1
62 8 m 1
 1413 8 l 1
 1413 0 l 1
 62 0 l 1
 62 8 l 1
2994 717 m 0
 2994 225 2528 -40 2032 -40 c 0
 1660 -40 1385 222 1385 639 c 0
 1385 868 1555 987 1740 987 c 0
 1903 987 2064 885 2064 676 c 0
 2064 483 1887 368 1728 368 c 0
 1561 368 1421 481 1393 624 c 1
 1401 221 1675 -22 1970 -22 c 0
 2273 -22 2335 394 2335 656 c 0
 2335 1042 2260 1654 1650 1654 c 1
 1650 1662 l 1
 2638 1662 2994 1249 2994 717 c 0
EndSplineSet
EndChar

StartChar: circumflex
Encoding: 710 710 335
GlifName: circumflex
Width: 1740
Flags: HMW
LayerCount: 2
Fore
SplineSet
868 2867 m 1
 208 2595 l 1
 204 2601 l 1
 697 3154 l 1
 1045 3154 l 1
 1536 2601 l 1
 1532 2595 l 1
 868 2867 l 1
EndSplineSet
EndChar

StartChar: caron
Encoding: 711 711 336
GlifName: caron
Width: 1740
Flags: HMW
LayerCount: 2
Fore
SplineSet
870 2928 m 1
 1530 3198 l 1
 1536 3194 l 1
 1045 2642 l 1
 697 2642 l 1
 204 3194 l 1
 210 3198 l 1
 870 2928 l 1
EndSplineSet
EndChar

StartChar: pi
Encoding: 960 960 337
GlifName: pi
Width: 2583
VWidth: 4730
Flags: HMW
LayerCount: 2
Fore
SplineSet
2441 422 m 1
 2347 136 2195 -40 1896 -40 c 0
 1622 -40 1418 78 1418 340 c 2
 1418 1720 l 1
 1991 1720 l 1
 1991 311 l 2
 1991 229 2032 149 2151 149 c 0
 2259 149 2353 221 2435 428 c 1
 2441 422 l 1
508 -40 m 0
 299 -40 164 74 164 238 c 0
 164 619 807 438 807 1142 c 2
 807 1844 l 1
 1036 1844 l 1
 1036 996 l 2
 1036 348 848 -40 508 -40 c 0
2359 1884 m 1
 2359 1311 l 1
 176 1311 l 1
 176 1003 l 1
 168 1003 l 1
 168 1884 l 1
 2359 1884 l 1
EndSplineSet
EndChar

StartChar: uni1E9E
Encoding: 7838 7838 338
GlifName: uni1E_9E_
Width: 3649
VWidth: 4730
Flags: HMW
LayerCount: 2
Fore
SplineSet
62 8 m 1
 1454 8 l 1
 1454 0 l 1
 62 0 l 1
 62 8 l 1
2517 1637 m 1
 2304 1668.5 2088 1692.5 1876 1700 c 1
 2890 2959 l 1
 2767 3014 2498 3104 2162 3104 c 0
 1368 3104 1086 2532 1086 1766 c 2
 1086 0 l 1
 430 0 l 1
 430 1806 l 2
 430 2679 1187 3112 2162 3112 c 0
 2788 3112 3220 2843 3363 2687 c 1
 2517 1637 l 1
1424 606 m 1
 1461 268 1784 -12 2237 -12 c 0
 2674 -12 2816 372 2816 819 c 0
 2816 1184 2671 1692 1876 1692 c 1
 1876 1700 l 1
 3129 1700 3486 1320 3486 829 c 0
 3486 276 2979 -40 2360 -40 c 0
 1717 -40 1413 325 1413 660 c 0
 1413 889 1567 1039 1772 1039 c 0
 1956 1039 2095 907 2095 698 c 0
 2095 505 1929 368 1749 368 c 0
 1588 368 1465 493 1424 606 c 1
EndSplineSet
EndChar

StartChar: uni203D
Encoding: 8253 8253 339
GlifName: uni203D_
Width: 2702
Flags: HMW
LayerCount: 2
Fore
SplineSet
1663 2126 m 0
 1617 1732 1323 1281 1323 995 c 1
 1315 995 l 1
 1315 1281 1103 1732 1057 2126 c 0
 1053 2154 1053 2180 1053 2204 c 0
 1053 2318 1127 2511 1360 2511 c 0
 1593 2511 1667 2318 1667 2204 c 0
 1667 2180 1667 2154 1663 2126 c 0
266 2277 m 0
 266 2653 672 3112 1397 3112 c 0
 2015 3112 2539 2805 2539 2252 c 0
 2539 1719 1918 1372 1381 1372 c 1
 1381 1380 l 1
 1717 1389 2003 1852 2003 2294 c 0
 2003 2680 1749 3078 1303 3078 c 0
 714 3078 320 2669 291 2349 c 1
 319 2451 435 2560 602 2560 c 0
 782 2560 897 2397 897 2253 c 0
 897 2028 725 1921 582 1921 c 0
 419 1921 266 2048 266 2277 c 0
EndSplineSet
Refer: 1 46 N 1 0 0 1 775 0 2
EndChar

StartChar: R.alt
Encoding: 65536 -1 340
GlifName: R_.alt
Width: 2979
Flags: HMW
LayerCount: 2
Fore
SplineSet
1505 1572 m 2
 809 1572 l 1
 809 1582 l 1
 1403 1582 l 2
 1797 1582 1997 1827 1997 2314 c 0
 1997 2801 1797 3064 1403 3064 c 2
 72 3064 l 1
 72 3072 l 1
 1505 3072 l 2
 2185 3072 2652 2846 2652 2314 c 0
 2652 1782 2226 1572 1505 1572 c 2
72 8 m 1
 1526 8 l 1
 1526 0 l 1
 72 0 l 1
 72 8 l 1
481 3072 m 1
 1116 3072 l 1
 1116 0 l 1
 481 0 l 1
 481 3072 l 1
2939 0 m 1
 2873 0 2637 0 2489 0 c 0
 1412 0 2390 1572 1383 1572 c 2
 809 1572 l 1
 809 1582 l 1
 1711 1582 l 2
 3095 1582 2271 8 2795 8 c 0
 2881 8 2881 8 2939 8 c 1
 2939 0 l 1
EndSplineSet
EndChar

StartChar: J.alt
Encoding: 65537 -1 341
GlifName: J_.alt
Width: 2593
Flags: HMW
LayerCount: 2
Fore
SplineSet
977 3072 m 1
 2533 3072 l 1
 2533 3064 l 1
 977 3064 l 1
 977 3072 l 1
1489 3072 m 1
 2123 3072 l 1
 2123 921 l 1
 2000 347 1657 -81 936 -81 c 0
 395 -81 72 308 72 676 c 0
 72 991 285 1168 510 1168 c 0
 715 1168 883 1031 883 792 c 0
 883 587 712 419 492 419 c 0
 286 419 131 518 90 641 c 1
 119 246 469 -65 895 -65 c 0
 1329 -65 1489 327 1489 901 c 2
 1489 3072 l 1
EndSplineSet
EndChar

StartChar: four.alt
Encoding: 65538 -1 342
GlifName: four.alt
Width: 2682
VWidth: 4730
Flags: HMW
LayerCount: 2
Fore
SplineSet
2416 8 m 1
 2416 0 l 1
 1086 0 l 1
 1086 8 l 1
 2416 8 l 1
2110 2040 m 1
 2110 -4 l 1
 1474 -4 l 1
 1474 1856 l 1
 1658 1856 1987 1959 2110 2040 c 1
76 784 m 1
 2478 784 l 1
 2478 776 l 1
 62 776 l 1
 636 1596 1269 2458 1351 3072 c 1
 2040 3072 l 1
 1962 2376 654 1578 76 784 c 1
EndSplineSet
EndChar

StartChar: fj.lig
Encoding: 65539 -1 343
GlifName: fj.lig
Width: 2502
VWidth: 4730
Flags: HMW
LayerCount: 2
Fore
SplineSet
51 8 m 1
 1352 8 l 1
 1352 0 l 1
 51 0 l 1
 51 8 l 1
2191 -50 m 2
 2191 -586 1876 -1064 1303 -1064 c 0
 930 -1064 676 -863 676 -588 c 0
 676 -379 827 -241 1011 -241 c 0
 1175 -241 1343 -340 1343 -545 c 0
 1343 -750 1184 -857 1003 -857 c 0
 841 -857 723 -748 686 -629 c 1
 708 -871 950 -1050 1261 -1050 c 0
 1691 -1050 1618 -438 1618 82 c 2
 1618 1876 l 1
 51 1876 l 1
 51 1884 l 1
 2191 1884 l 1
 2191 -50 l 2
2160 2745 m 1
 2103 2919 1924 3102 1533 3102 c 0
 1103 3102 972 2732 972 2212 c 2
 972 0 l 1
 420 0 l 1
 420 2098 l 2
 420 2696 816 3112 1533 3112 c 0
 1967 3112 2201 2879 2201 2625 c 0
 2201 2416 2071 2289 1887 2289 c 0
 1723 2289 1555 2388 1555 2593 c 0
 1555 2798 1714 2907 1880 2907 c 0
 2017 2907 2113 2827 2160 2745 c 1
EndSplineSet
LCarets2: 1 0
Ligature2: "'liga' Standard Ligatures lookup 0-1" f j
EndChar

StartChar: uni2116
Encoding: 8470 8470 344
GlifName: uni2116
Width: 4693
Flags: HW
LayerCount: 2
Fore
SplineSet
3543 2334 m 0
 3543 1868 3625 1564 3826 1564 c 0
 4027 1564 4109 1868 4109 2334 c 0
 4109 2800 4027 3104 3826 3104 c 0
 3625 3104 3543 2800 3543 2334 c 0
3072 2334 m 0
 3072 2846 3392 3112 3826 3112 c 0
 4260 3112 4580 2846 4580 2334 c 0
 4580 1822 4260 1556 3826 1556 c 0
 3392 1556 3072 1822 3072 2334 c 0
EndSplineSet
Refer: 85 45 N 1 0 0 1 3088 164 2
Refer: 25 78 N 1 0 0 1 0 0 2
EndChar

StartChar: Euro
Encoding: 8364 8364 345
Width: 2969
Flags: HW
LayerCount: 2
Fore
SplineSet
2738 2638 m 1
 2665 2834 2368 3094 1962 3094 c 0
 1372 3094 1188 2330 1188 1536 c 0
 1188 660 1417 -10 1884 -10 c 0
 2294 -10 2626 334 2728 730 c 1
 2736 730 l 1
 2630 332 2311 -40 1774 -40 c 0
 1053 -40 451 594 451 1536 c 0
 451 2396 995 3112 1880 3112 c 0
 2441 3112 2785 2757 2785 2483 c 0
 2785 2254 2634 2126 2450 2126 c 0
 2286 2126 2114 2232 2114 2457 c 0
 2114 2662 2270 2785 2450 2785 c 0
 2593 2785 2705 2694 2738 2638 c 1
EndSplineSet
Refer: 88 61 N 1 0 0 1 -122 -286 2
EndChar

